<svg width="1523" height="641" viewBox="0 0 1523 641" fill="none" xmlns="http://www.w3.org/2000/svg">
<g filter="url(#filter0_bd_105_610)">
<rect x="35" y="536.492" width="63.625" height="63.625" transform="rotate(-57.2191 35 536.492)" fill="url(#paint0_linear_105_610)"/>
<rect x="35.6911" y="536.343" width="62.625" height="62.625" transform="rotate(-57.2191 35.6911 536.343)" stroke="white"/>
</g>
<g filter="url(#filter1_bd_105_610)">
<mask id="path-3-inside-1_105_610" fill="white">
<path d="M1386.42 57.45C1405.85 65.6277 1423.31 77.8599 1437.64 93.3287C1451.97 108.798 1462.82 127.147 1469.49 147.149C1476.15 167.151 1478.47 188.346 1476.29 209.315C1474.1 230.285 1467.46 250.547 1456.82 268.746C1446.18 286.945 1431.77 302.662 1414.56 314.846C1397.36 327.03 1377.75 335.4 1357.05 339.397C1336.35 343.394 1315.03 342.925 1294.52 338.022C1274.02 333.119 1254.8 323.895 1238.14 310.966L1286.26 248.988C1294.09 255.068 1303.13 259.406 1312.77 261.711C1322.41 264.017 1332.44 264.237 1342.17 262.358C1351.91 260.478 1361.13 256.542 1369.22 250.813C1377.31 245.083 1384.09 237.692 1389.09 229.134C1394.1 220.575 1397.22 211.047 1398.25 201.186C1399.27 191.324 1398.18 181.357 1395.05 171.951C1391.92 162.545 1386.81 153.916 1380.07 146.642C1373.34 139.367 1365.12 133.615 1355.98 129.769L1386.42 57.45Z"/>
</mask>
<path d="M1386.42 57.45C1405.85 65.6277 1423.31 77.8599 1437.64 93.3287C1451.97 108.798 1462.82 127.147 1469.49 147.149C1476.15 167.151 1478.47 188.346 1476.29 209.315C1474.1 230.285 1467.46 250.547 1456.82 268.746C1446.18 286.945 1431.77 302.662 1414.56 314.846C1397.36 327.03 1377.75 335.4 1357.05 339.397C1336.35 343.394 1315.03 342.925 1294.52 338.022C1274.02 333.119 1254.8 323.895 1238.14 310.966L1286.26 248.988C1294.09 255.068 1303.13 259.406 1312.77 261.711C1322.41 264.017 1332.44 264.237 1342.17 262.358C1351.91 260.478 1361.13 256.542 1369.22 250.813C1377.31 245.083 1384.09 237.692 1389.09 229.134C1394.1 220.575 1397.22 211.047 1398.25 201.186C1399.27 191.324 1398.18 181.357 1395.05 171.951C1391.92 162.545 1386.81 153.916 1380.07 146.642C1373.34 139.367 1365.12 133.615 1355.98 129.769L1386.42 57.45Z" fill="url(#paint1_linear_105_610)"/>
<path d="M1386.42 57.45C1405.85 65.6277 1423.31 77.8599 1437.64 93.3287C1451.97 108.798 1462.82 127.147 1469.49 147.149C1476.15 167.151 1478.47 188.346 1476.29 209.315C1474.1 230.285 1467.46 250.547 1456.82 268.746C1446.18 286.945 1431.77 302.662 1414.56 314.846C1397.36 327.03 1377.75 335.4 1357.05 339.397C1336.35 343.394 1315.03 342.925 1294.52 338.022C1274.02 333.119 1254.8 323.895 1238.14 310.966L1286.26 248.988C1294.09 255.068 1303.13 259.406 1312.77 261.711C1322.41 264.017 1332.44 264.237 1342.17 262.358C1351.91 260.478 1361.13 256.542 1369.22 250.813C1377.31 245.083 1384.09 237.692 1389.09 229.134C1394.1 220.575 1397.22 211.047 1398.25 201.186C1399.27 191.324 1398.18 181.357 1395.05 171.951C1391.92 162.545 1386.81 153.916 1380.07 146.642C1373.34 139.367 1365.12 133.615 1355.98 129.769L1386.42 57.45Z" stroke="white" stroke-width="2" mask="url(#path-3-inside-1_105_610)"/>
</g>
<defs>
<filter id="filter0_bd_105_610" x="-25" y="423" width="207.941" height="217.941" filterUnits="userSpaceOnUse" color-interpolation-filters="sRGB">
<feFlood flood-opacity="0" result="BackgroundImageFix"/>
<feGaussianBlur in="BackgroundImageFix" stdDeviation="30"/>
<feComposite in2="SourceAlpha" operator="in" result="effect1_backgroundBlur_105_610"/>
<feColorMatrix in="SourceAlpha" type="matrix" values="0 0 0 0 0 0 0 0 0 0 0 0 0 0 0 0 0 0 127 0" result="hardAlpha"/>
<feOffset dy="35"/>
<feGaussianBlur stdDeviation="17.5"/>
<feComposite in2="hardAlpha" operator="out"/>
<feColorMatrix type="matrix" values="0 0 0 0 0.32549 0 0 0 0 0.552941 0 0 0 0 1 0 0 0 0.2 0"/>
<feBlend mode="normal" in2="effect1_backgroundBlur_105_610" result="effect2_dropShadow_105_610"/>
<feBlend mode="normal" in="SourceGraphic" in2="effect2_dropShadow_105_610" result="shape"/>
</filter>
<filter id="filter1_bd_105_610" x="1178.14" y="-2.55005" width="358.94" height="414.633" filterUnits="userSpaceOnUse" color-interpolation-filters="sRGB">
<feFlood flood-opacity="0" result="BackgroundImageFix"/>
<feGaussianBlur in="BackgroundImageFix" stdDeviation="30"/>
<feComposite in2="SourceAlpha" operator="in" result="effect1_backgroundBlur_105_610"/>
<feColorMatrix in="SourceAlpha" type="matrix" values="0 0 0 0 0 0 0 0 0 0 0 0 0 0 0 0 0 0 127 0" result="hardAlpha"/>
<feOffset dy="35"/>
<feGaussianBlur stdDeviation="17.5"/>
<feComposite in2="hardAlpha" operator="out"/>
<feColorMatrix type="matrix" values="0 0 0 0 0.32549 0 0 0 0 0.552941 0 0 0 0 1 0 0 0 0.3 0"/>
<feBlend mode="normal" in2="effect1_backgroundBlur_105_610" result="effect2_dropShadow_105_610"/>
<feBlend mode="normal" in="SourceGraphic" in2="effect2_dropShadow_105_610" result="shape"/>
</filter>
<linearGradient id="paint0_linear_105_610" x1="86.9813" y1="555.352" x2="49.9884" y2="579.175" gradientUnits="userSpaceOnUse">
<stop stop-color="white"/>
<stop offset="1" stop-color="#E8F0FF"/>
</linearGradient>
<linearGradient id="paint1_linear_105_610" x1="1295.52" y1="249.839" x2="1423.07" y2="151.63" gradientUnits="userSpaceOnUse">
<stop offset="0.0401148" stop-color="white"/>
<stop offset="1" stop-color="#E8F0FF"/>
</linearGradient>
</defs>
</svg>
