<svg width="72" height="72" viewBox="0 0 72 72" fill="none" xmlns="http://www.w3.org/2000/svg">
<g filter="url(#filter0_b_3_361)">
<circle cx="36" cy="36" r="36" fill="#101010"/>
</g>
<path d="M40.2903 33.9392C40.5938 33.9392 40.842 33.691 40.842 33.3876V27.4094C40.842 26.3418 39.9924 25.4729 38.9497 25.4729C37.907 25.4729 37.0574 26.3419 37.0574 27.4094C37.0574 27.7129 37.3057 27.9611 37.6091 27.9611C37.9125 27.9611 38.1608 27.7128 38.1608 27.4094C38.1608 26.9487 38.5139 26.5764 38.9497 26.5764C39.3856 26.5764 39.7387 26.9516 39.7387 27.4094V33.3871C39.7387 33.6934 39.9842 33.939 40.2903 33.939V33.9392Z" fill="white"/>
<path d="M34.922 35.2907C35.2254 35.2907 35.4736 35.0424 35.4736 34.739V25.9392C35.4736 25.4786 35.8267 25.1033 36.2626 25.1033C36.6984 25.1033 37.0515 25.4785 37.0515 25.9392V34.739C37.0515 35.0425 37.2997 35.2907 37.6032 35.2907C37.9066 35.2907 38.1548 35.0424 38.1548 34.739V25.9392C38.1548 24.8717 37.3053 24 36.2626 24C35.2198 24 34.3703 24.869 34.3703 25.9392V34.739C34.3703 35.0425 34.6185 35.2907 34.922 35.2907Z" fill="white"/>
<path d="M32.2408 30.8691C32.5442 30.8691 32.7924 30.6209 32.7924 30.3174V27.4319C32.7924 26.9712 33.1482 26.596 33.5814 26.596C34.0145 26.596 34.3703 26.9712 34.3703 27.4319C34.3703 27.7353 34.6185 27.9836 34.922 27.9836C35.2254 27.9836 35.4736 27.7353 35.4736 27.4319C35.4736 26.3616 34.6241 25.4927 33.5814 25.4927C32.5386 25.4927 31.6891 26.3617 31.6891 27.4319V30.3172C31.6889 30.6236 31.9344 30.8691 32.2408 30.8691Z" fill="white"/>
<path d="M35.7884 48.476C36.5526 48.476 37.3857 48.4016 37.5208 48.3906C37.54 48.3879 37.5566 48.385 37.576 48.3823C40.8724 47.7423 43.267 44.8431 43.267 41.4884V33.2182C43.267 32.7436 43.0159 32.3217 42.5967 32.09C42.1333 31.8335 41.5374 31.8527 41.0823 32.1396L40.5306 32.5203C40.5141 32.5312 40.4975 32.5451 40.4837 32.556C39.7637 33.1795 39.3499 34.0154 39.3499 34.8484V38.0841C38.4423 38.5475 35.9928 40.0263 35.9928 42.5393C35.9928 42.8427 36.241 43.0909 36.5444 43.0909C36.8479 43.0909 37.0961 42.8427 37.0961 42.5393C37.0961 40.2414 40.078 38.956 40.1084 38.9448C40.1885 38.9117 40.2574 38.8594 40.3153 38.7932C40.4007 38.6939 40.4532 38.5586 40.4532 38.4262V34.8485C40.4532 34.3438 40.718 33.8224 41.1843 33.4087L41.689 33.0583C41.8048 32.9865 41.9676 33.003 42.0613 33.0527C42.1496 33.1023 42.1606 33.1603 42.1606 33.2155V41.4857C42.1606 44.3022 40.1552 46.7408 37.3884 47.2895C36.6766 47.353 35.4297 47.4163 35.0104 47.3199C32.1222 46.6441 30.1029 44.2469 30.1029 41.4856V30.0928C30.1029 29.6321 30.456 29.2569 30.8919 29.2569C31.3277 29.2569 31.6808 29.6321 31.6808 30.0928V35.6345C31.6808 35.9379 31.929 36.1862 32.2325 36.1862C32.5359 36.1862 32.7841 35.9379 32.7841 35.6345L32.7845 30.0952C32.7845 29.025 31.935 28.156 30.8922 28.156C29.8495 28.156 29 29.025 29 30.0952V41.488C29 44.7652 31.3696 47.6037 34.7599 48.3982C35.0162 48.456 35.3942 48.4752 35.7886 48.4752L35.7884 48.476Z" fill="white"/>
<defs>
<filter id="filter0_b_3_361" x="-60" y="-60" width="192" height="192" filterUnits="userSpaceOnUse" color-interpolation-filters="sRGB">
<feFlood flood-opacity="0" result="BackgroundImageFix"/>
<feGaussianBlur in="BackgroundImageFix" stdDeviation="30"/>
<feComposite in2="SourceAlpha" operator="in" result="effect1_backgroundBlur_3_361"/>
<feBlend mode="normal" in="SourceGraphic" in2="effect1_backgroundBlur_3_361" result="shape"/>
</filter>
</defs>
</svg>
