<svg width="948" height="716" viewBox="0 0 948 716" fill="none" xmlns="http://www.w3.org/2000/svg">
<g filter="url(#filter0_bd_101_607)">
<path fill-rule="evenodd" clip-rule="evenodd" d="M710.854 211.315L778.306 241.53L827.885 186.717L791.076 122.625L718.747 137.828L710.854 211.315ZM656.632 81.6437L638.226 253.027L795.533 323.493L911.161 195.66L825.316 46.1891L656.632 81.6437Z" fill="url(#paint0_linear_101_607)"/>
<path d="M778.101 241.986L778.433 242.135L778.676 241.865L828.256 187.052L828.5 186.783L828.319 186.468L791.51 122.376L791.329 122.061L790.973 122.136L718.644 137.338L718.288 137.413L718.25 137.774L710.357 211.261L710.318 211.622L710.65 211.771L778.101 241.986ZM795.406 322.889L638.761 252.719L657.091 82.0582L825.063 46.7531L910.547 195.594L795.406 322.889Z" stroke="white"/>
</g>
<g filter="url(#filter1_bd_101_607)">
<mask id="path-3-inside-1_101_607" fill="white">
<path d="M310.593 602.604C295.204 617.015 276.915 627.974 256.95 634.75C236.985 641.525 215.804 643.96 194.822 641.892C173.841 639.824 153.542 633.3 135.285 622.757C117.027 612.213 101.23 597.894 88.9511 580.755C76.6719 563.617 68.1932 544.054 64.0818 523.376C59.9703 502.697 60.3209 481.379 65.1102 460.847C69.8994 440.315 79.0168 421.042 91.8529 404.316C104.689 387.591 120.948 373.798 139.543 363.861L176.524 433.061C167.779 437.734 160.133 444.22 154.097 452.086C148.061 459.951 143.773 469.015 141.521 478.67C139.269 488.325 139.104 498.351 141.037 508.075C142.971 517.799 146.958 526.999 152.732 535.058C158.507 543.118 165.935 549.852 174.521 554.81C183.107 559.768 192.653 562.836 202.52 563.808C212.386 564.781 222.347 563.636 231.736 560.45C241.125 557.264 249.725 552.11 256.962 545.333L310.593 602.604Z"/>
</mask>
<path d="M310.593 602.604C295.204 617.015 276.915 627.974 256.95 634.75C236.985 641.525 215.804 643.96 194.822 641.892C173.841 639.824 153.542 633.3 135.285 622.757C117.027 612.213 101.23 597.894 88.9511 580.755C76.6719 563.617 68.1932 544.054 64.0818 523.376C59.9703 502.697 60.3209 481.379 65.1102 460.847C69.8994 440.315 79.0168 421.042 91.8529 404.316C104.689 387.591 120.948 373.798 139.543 363.861L176.524 433.061C167.779 437.734 160.133 444.22 154.097 452.086C148.061 459.951 143.773 469.015 141.521 478.67C139.269 488.325 139.104 498.351 141.037 508.075C142.971 517.799 146.958 526.999 152.732 535.058C158.507 543.118 165.935 549.852 174.521 554.81C183.107 559.768 192.653 562.836 202.52 563.808C212.386 564.781 222.347 563.636 231.736 560.45C241.125 557.264 249.725 552.11 256.962 545.333L310.593 602.604Z" fill="url(#paint1_linear_101_607)"/>
<path d="M310.593 602.604C295.204 617.015 276.915 627.974 256.95 634.75C236.985 641.525 215.804 643.96 194.822 641.892C173.841 639.824 153.542 633.3 135.285 622.757C117.027 612.213 101.23 597.894 88.9511 580.755C76.6719 563.617 68.1932 544.054 64.0818 523.376C59.9703 502.697 60.3209 481.379 65.1102 460.847C69.8994 440.315 79.0168 421.042 91.8529 404.316C104.689 387.591 120.948 373.798 139.543 363.861L176.524 433.061C167.779 437.734 160.133 444.22 154.097 452.086C148.061 459.951 143.773 469.015 141.521 478.67C139.269 488.325 139.104 498.351 141.037 508.075C142.971 517.799 146.958 526.999 152.732 535.058C158.507 543.118 165.935 549.852 174.521 554.81C183.107 559.768 192.653 562.836 202.52 563.808C212.386 564.781 222.347 563.636 231.736 560.45C241.125 557.264 249.725 552.11 256.962 545.333L310.593 602.604Z" stroke="white" stroke-width="2" mask="url(#path-3-inside-1_101_607)"/>
</g>
<g filter="url(#filter2_bd_101_607)">
<rect x="689.201" y="611.115" width="63.625" height="63.625" transform="rotate(-57.2191 689.201 611.115)" fill="url(#paint2_linear_101_607)"/>
<rect x="689.892" y="610.965" width="62.625" height="62.625" transform="rotate(-57.2191 689.892 610.965)" stroke="white"/>
</g>
<circle cx="444.201" cy="313.622" r="237" fill="url(#paint3_linear_101_607)"/>
<g filter="url(#filter3_bd_101_607)">
<circle cx="147.201" cy="122.622" r="36" fill="url(#paint4_linear_101_607)"/>
<circle cx="147.201" cy="122.622" r="35.5" stroke="white"/>
</g>
<defs>
<filter id="filter0_bd_101_607" x="576.626" y="-15.4101" width="396.134" height="410.769" filterUnits="userSpaceOnUse" color-interpolation-filters="sRGB">
<feFlood flood-opacity="0" result="BackgroundImageFix"/>
<feGaussianBlur in="BackgroundImageFix" stdDeviation="30.7995"/>
<feComposite in2="SourceAlpha" operator="in" result="effect1_backgroundBlur_101_607"/>
<feColorMatrix in="SourceAlpha" type="matrix" values="0 0 0 0 0 0 0 0 0 0 0 0 0 0 0 0 0 0 127 0" result="hardAlpha"/>
<feOffset dy="35.9328"/>
<feGaussianBlur stdDeviation="17.9664"/>
<feComposite in2="hardAlpha" operator="out"/>
<feColorMatrix type="matrix" values="0 0 0 0 0.32549 0 0 0 0 0.552941 0 0 0 0 1 0 0 0 0.2 0"/>
<feBlend mode="normal" in2="effect1_backgroundBlur_101_607" result="effect2_dropShadow_101_607"/>
<feBlend mode="normal" in="SourceGraphic" in2="effect2_dropShadow_101_607" result="shape"/>
</filter>
<filter id="filter1_bd_101_607" x="1.23819" y="303.861" width="369.355" height="408.745" filterUnits="userSpaceOnUse" color-interpolation-filters="sRGB">
<feFlood flood-opacity="0" result="BackgroundImageFix"/>
<feGaussianBlur in="BackgroundImageFix" stdDeviation="30"/>
<feComposite in2="SourceAlpha" operator="in" result="effect1_backgroundBlur_101_607"/>
<feColorMatrix in="SourceAlpha" type="matrix" values="0 0 0 0 0 0 0 0 0 0 0 0 0 0 0 0 0 0 127 0" result="hardAlpha"/>
<feOffset dy="35"/>
<feGaussianBlur stdDeviation="17.5"/>
<feComposite in2="hardAlpha" operator="out"/>
<feColorMatrix type="matrix" values="0 0 0 0 0.32549 0 0 0 0 0.552941 0 0 0 0 1 0 0 0 0.3 0"/>
<feBlend mode="normal" in2="effect1_backgroundBlur_101_607" result="effect2_dropShadow_101_607"/>
<feBlend mode="normal" in="SourceGraphic" in2="effect2_dropShadow_101_607" result="shape"/>
</filter>
<filter id="filter2_bd_101_607" x="629.201" y="497.622" width="207.941" height="217.941" filterUnits="userSpaceOnUse" color-interpolation-filters="sRGB">
<feFlood flood-opacity="0" result="BackgroundImageFix"/>
<feGaussianBlur in="BackgroundImageFix" stdDeviation="30"/>
<feComposite in2="SourceAlpha" operator="in" result="effect1_backgroundBlur_101_607"/>
<feColorMatrix in="SourceAlpha" type="matrix" values="0 0 0 0 0 0 0 0 0 0 0 0 0 0 0 0 0 0 127 0" result="hardAlpha"/>
<feOffset dy="35"/>
<feGaussianBlur stdDeviation="17.5"/>
<feComposite in2="hardAlpha" operator="out"/>
<feColorMatrix type="matrix" values="0 0 0 0 0.32549 0 0 0 0 0.552941 0 0 0 0 1 0 0 0 0.2 0"/>
<feBlend mode="normal" in2="effect1_backgroundBlur_101_607" result="effect2_dropShadow_101_607"/>
<feBlend mode="normal" in="SourceGraphic" in2="effect2_dropShadow_101_607" result="shape"/>
</filter>
<filter id="filter3_bd_101_607" x="51.201" y="26.6221" width="192" height="202" filterUnits="userSpaceOnUse" color-interpolation-filters="sRGB">
<feFlood flood-opacity="0" result="BackgroundImageFix"/>
<feGaussianBlur in="BackgroundImageFix" stdDeviation="30"/>
<feComposite in2="SourceAlpha" operator="in" result="effect1_backgroundBlur_101_607"/>
<feColorMatrix in="SourceAlpha" type="matrix" values="0 0 0 0 0 0 0 0 0 0 0 0 0 0 0 0 0 0 127 0" result="hardAlpha"/>
<feOffset dy="35"/>
<feGaussianBlur stdDeviation="17.5"/>
<feComposite in2="hardAlpha" operator="out"/>
<feColorMatrix type="matrix" values="0 0 0 0 0.32549 0 0 0 0 0.552941 0 0 0 0 1 0 0 0 0.3 0"/>
<feBlend mode="normal" in2="effect1_backgroundBlur_101_607" result="effect2_dropShadow_101_607"/>
<feBlend mode="normal" in="SourceGraphic" in2="effect2_dropShadow_101_607" result="shape"/>
</filter>
<linearGradient id="paint0_linear_101_607" x1="762.701" y1="78.1217" x2="727.201" y2="252.122" gradientUnits="userSpaceOnUse">
<stop stop-color="white"/>
<stop offset="1" stop-color="#E8F0FF"/>
</linearGradient>
<linearGradient id="paint1_linear_101_607" x1="171.971" y1="441.17" x2="209.65" y2="597.683" gradientUnits="userSpaceOnUse">
<stop offset="0.0401148" stop-color="white"/>
<stop offset="1" stop-color="#E8F0FF"/>
</linearGradient>
<linearGradient id="paint2_linear_101_607" x1="741.182" y1="629.974" x2="704.189" y2="653.797" gradientUnits="userSpaceOnUse">
<stop stop-color="white"/>
<stop offset="1" stop-color="#E8F0FF"/>
</linearGradient>
<linearGradient id="paint3_linear_101_607" x1="594.201" y1="162.122" x2="410.201" y2="462.622" gradientUnits="userSpaceOnUse">
<stop stop-color="#538DFF"/>
<stop offset="1" stop-color="#0056FF"/>
</linearGradient>
<linearGradient id="paint4_linear_101_607" x1="134.201" y1="151.122" x2="178.201" y2="90.6221" gradientUnits="userSpaceOnUse">
<stop stop-color="white"/>
<stop offset="1" stop-color="#E8F0FF"/>
</linearGradient>
</defs>
</svg>
