<svg width="51" height="51" viewBox="0 0 51 51" fill="none" xmlns="http://www.w3.org/2000/svg">
<g filter="url(#filter0_b_4_648)">
<circle cx="25.5" cy="25.5" r="25.5" fill="url(#paint0_linear_4_648)"/>
</g>
<path d="M19.5568 19.1461H21.9711V18.9389C21.9711 17.5317 22.6438 16.2312 23.7355 15.5277C24.8273 14.8241 26.1724 14.8241 27.2643 15.5277C28.3559 16.2312 29.0286 17.5317 29.0286 18.9389V19.1463L31.443 19.1461C31.7506 19.1461 32 19.4248 32 19.7682V29.7196C32 30.3243 31.7849 30.9045 31.4018 31.332C31.0186 31.7597 30.4991 32 29.9571 32H21.0429C20.5009 32 19.9814 31.7597 19.5982 31.332C19.2151 30.9045 19 30.3243 19 29.7196V19.7682C19 19.4248 19.2494 19.1461 19.557 19.1461H19.5568ZM27.9142 18.9389C27.9142 17.976 27.454 17.0864 26.707 16.605C25.9601 16.1235 25.0397 16.1235 24.2927 16.605C23.5458 17.0864 23.0856 17.976 23.0856 18.9389V19.1463H27.9142L27.9142 18.9389ZM20.1141 29.7193C20.1141 29.9942 20.2119 30.2578 20.3861 30.4523C20.5602 30.6466 20.7963 30.7559 21.0428 30.7559H29.957C30.2034 30.7559 30.4396 30.6466 30.6136 30.4523C30.7879 30.2578 30.8856 29.9942 30.8856 29.7193V20.39H29.0283L29.0285 22.2559C29.0285 22.5993 28.7789 22.8777 28.4713 22.8777C28.1635 22.8777 27.9141 22.5993 27.9141 22.2559V20.39H23.0854V22.2559C23.0854 22.5993 22.836 22.8777 22.5282 22.8777C22.2206 22.8777 21.971 22.5993 21.971 22.2559V20.39H20.1137L20.1141 29.7193Z" fill="white"/>
<defs>
<filter id="filter0_b_4_648" x="-42.5" y="-42.5" width="136" height="136" filterUnits="userSpaceOnUse" color-interpolation-filters="sRGB">
<feFlood flood-opacity="0" result="BackgroundImageFix"/>
<feGaussianBlur in="BackgroundImageFix" stdDeviation="21.25"/>
<feComposite in2="SourceAlpha" operator="in" result="effect1_backgroundBlur_4_648"/>
<feBlend mode="normal" in="SourceGraphic" in2="effect1_backgroundBlur_4_648" result="shape"/>
</filter>
<linearGradient id="paint0_linear_4_648" x1="41.6392" y1="9.19937" x2="21.8418" y2="41.5316" gradientUnits="userSpaceOnUse">
<stop stop-color="#538DFF"/>
<stop offset="1" stop-color="#0056FF"/>
</linearGradient>
</defs>
</svg>
