<svg width="72" height="72" viewBox="0 0 72 72" fill="none" xmlns="http://www.w3.org/2000/svg">
<g filter="url(#filter0_b_3_370)">
<circle cx="36" cy="36" r="36" fill="#101010"/>
</g>
<path d="M40.5574 43.927H23.8404C23.3539 43.932 22.8858 43.7423 22.5401 43.4003C22.1945 43.0581 22 42.5918 22 42.1054V31.2689C22 30.7858 22.1918 30.3225 22.5336 29.9809C22.8752 29.6393 23.3385 29.4473 23.8217 29.4473H40.5573C41.0404 29.4473 41.5038 29.6393 41.8453 29.9809C42.1871 30.3224 42.379 30.7858 42.379 31.2689V42.1054C42.379 42.5885 42.1871 43.0518 41.8453 43.3936C41.5038 43.7352 41.0405 43.927 40.5573 43.927H40.5574ZM23.8404 30.3815H23.8406C23.6018 30.3765 23.3714 30.4678 23.2009 30.6348C23.0303 30.8018 22.9344 31.0304 22.9344 31.2689V42.1054C22.9356 42.3404 23.0295 42.5654 23.1957 42.7316C23.3618 42.8977 23.5868 42.9918 23.8218 42.9928H40.5575C40.7925 42.9918 41.0175 42.8977 41.1836 42.7316C41.3498 42.5654 41.4437 42.3404 41.4449 42.1054V31.2689C41.4449 31.0337 41.3515 30.8079 41.1851 30.6415C41.0185 30.4751 40.7929 30.3815 40.5574 30.3815H23.8404Z" fill="white"/>
<path d="M44.4478 40.4797H41.4444V31.2687C41.4444 31.0335 41.351 30.8077 41.1846 30.6413C41.018 30.4749 40.7924 30.3812 40.557 30.3812H25.9091V27.8217C25.9091 27.3385 26.1009 26.8752 26.4427 26.5336C26.7842 26.1921 27.2476 26 27.7307 26H44.4477C44.9308 26 45.3941 26.1921 45.7359 26.5336C46.0775 26.8752 46.2693 27.3385 46.2693 27.8217V38.6581C46.2693 39.1413 46.0775 39.6046 45.7359 39.9462C45.3942 40.2879 44.9308 40.4798 44.4477 40.4798L44.4478 40.4797ZM42.3786 39.5455H44.4478C44.6828 39.5443 44.9078 39.4504 45.074 39.2843C45.2402 39.1181 45.3342 38.8931 45.3352 38.6581V27.8216C45.3352 27.5862 45.2418 27.3606 45.0754 27.1942C44.909 27.0278 44.6832 26.9342 44.4478 26.9342H27.7308C27.4954 26.9342 27.2697 27.0278 27.1031 27.1942C26.9367 27.3606 26.8433 27.5862 26.8433 27.8216V29.447H40.557C41.0402 29.447 41.5035 29.6391 41.8451 29.9807C42.1868 30.3222 42.3787 30.7855 42.3787 31.2687L42.3786 39.5455Z" fill="white"/>
<path d="M39.3803 49.0001C39.1792 49.0026 38.9822 48.944 38.8152 48.8318L30.1038 42.9929H40.3798V48.0141C40.3785 48.276 40.2736 48.5266 40.0881 48.7114C39.9025 48.8961 39.6514 48.9997 39.3895 48.9997L39.3803 49.0001ZM33.1821 43.9274L39.3525 48.0566C39.3677 48.0682 39.3888 48.0682 39.4038 48.0566C39.424 48.0503 39.4376 48.0311 39.4365 48.0098V43.9274H33.1821Z" fill="white"/>
<path d="M39.3285 33.7074H31.4344C31.1765 33.7074 30.9673 33.4982 30.9673 33.2403C30.9673 32.9823 31.1765 32.7732 31.4344 32.7732H39.3285C39.5864 32.7732 39.7956 32.9823 39.7956 33.2403C39.7956 33.4982 39.5864 33.7074 39.3285 33.7074Z" fill="white"/>
<path d="M28.7537 33.7074H25.073C24.8151 33.7074 24.606 33.4982 24.606 33.2403C24.606 32.9823 24.8151 32.7732 25.073 32.7732H28.7537C29.0118 32.7732 29.2207 32.9823 29.2207 33.2403C29.2207 33.4982 29.0118 33.7074 28.7537 33.7074Z" fill="white"/>
<path d="M39.3285 37.5001H34.3028C34.0446 37.5001 33.8357 37.2909 33.8357 37.033C33.8357 36.7751 34.0446 36.5659 34.3028 36.5659H39.3285C39.5865 36.5659 39.7956 36.7751 39.7956 37.033C39.7956 37.2909 39.5865 37.5001 39.3285 37.5001Z" fill="white"/>
<path d="M31.594 37.5001H25.0548C24.7966 37.5001 24.5877 37.2909 24.5877 37.033C24.5877 36.7751 24.7966 36.5659 25.0548 36.5659H31.594C31.852 36.5659 32.0611 36.7751 32.0611 37.033C32.0611 37.2909 31.852 37.5001 31.594 37.5001Z" fill="white"/>
<path d="M39.3285 40.597H25.073C24.815 40.597 24.6059 40.3879 24.6059 40.1299C24.6059 39.872 24.815 39.6628 25.073 39.6628H39.3285C39.5865 39.6628 39.7956 39.872 39.7956 40.1299C39.7956 40.3879 39.5865 40.597 39.3285 40.597Z" fill="white"/>
<defs>
<filter id="filter0_b_3_370" x="-60" y="-60" width="192" height="192" filterUnits="userSpaceOnUse" color-interpolation-filters="sRGB">
<feFlood flood-opacity="0" result="BackgroundImageFix"/>
<feGaussianBlur in="BackgroundImageFix" stdDeviation="30"/>
<feComposite in2="SourceAlpha" operator="in" result="effect1_backgroundBlur_3_370"/>
<feBlend mode="normal" in="SourceGraphic" in2="effect1_backgroundBlur_3_370" result="shape"/>
</filter>
</defs>
</svg>
