<svg width="51" height="51" viewBox="0 0 51 51" fill="none" xmlns="http://www.w3.org/2000/svg">
<g filter="url(#filter0_b_4_624)">
<circle cx="25.5" cy="25.5" r="25.5" fill="url(#paint0_linear_4_624)"/>
</g>
<path d="M25.1671 15.0422L27.3337 16.2187L29.7721 16.5423C29.8992 16.5588 30.0017 16.6414 30.0496 16.751L31.1054 18.9651L32.8903 20.6648C32.9837 20.7539 33.0178 20.8821 32.9913 20.9996L32.5471 23.411L32.9941 25.8372C33.0162 25.9588 32.9732 26.0774 32.89 26.1571L31.1053 27.8572L30.2196 29.7141L32.1644 35.0683C32.2308 35.2518 32.1359 35.4553 31.9528 35.5217C31.8485 35.5597 31.7378 35.5452 31.6494 35.4915L29.1957 34.1562L28.1667 36.7746C28.0959 36.9568 27.8907 37.0467 27.7089 36.9757C27.6068 36.9358 27.5338 36.8533 27.5017 36.7566L25.6071 31.5406L25.1673 31.7795C25.0588 31.8379 24.9336 31.8337 24.8327 31.7795L24.393 31.5406L22.4987 36.7566C22.4665 36.8533 22.3936 36.9356 22.2915 36.9757C22.1097 37.0467 21.9045 36.9568 21.8337 36.7746L20.8047 34.1562L18.3506 35.4915C18.2622 35.5452 18.1515 35.5597 18.0473 35.5217C17.8641 35.4552 17.7693 35.2518 17.8356 35.0683L19.7806 29.7141L18.8949 27.8572L17.1097 26.1575C17.0163 26.0684 16.9822 25.9402 17.0087 25.8225L17.4532 23.4111L17.0059 20.9851C16.9839 20.8635 17.0268 20.7448 17.11 20.6651L18.8949 18.9651L19.9557 16.7403C20.0089 16.6282 20.1138 16.5576 20.2281 16.5424L22.6665 16.2187L24.8327 15.0422C24.9412 14.9838 25.0662 14.9881 25.1671 15.0422ZM23.7648 31.1997L22.6663 30.6032L20.3222 30.2921L18.8183 34.4325L20.8186 33.3438C20.9895 33.2504 21.204 33.3139 21.2972 33.4852L22.15 35.646L23.7648 31.1997ZM29.6774 30.2919L27.3335 30.6032L26.2349 31.1997L27.85 35.646L28.6832 33.5255L28.7028 33.4853C28.796 33.314 29.0104 33.2506 29.1814 33.3438L31.1817 34.4325L29.6774 30.2919ZM24.9998 18.2466C26.422 18.2466 27.7102 18.825 28.6429 19.7592C29.5765 20.695 30.1538 21.9858 30.1538 23.4106C30.1538 24.8357 29.5765 26.1265 28.6442 27.061C27.7102 27.9965 26.422 28.5749 24.9998 28.5749C23.5767 28.5749 22.2878 27.9968 21.3553 27.0623C20.4229 26.128 19.8458 24.8365 19.8458 23.4106C19.8458 21.9855 20.423 20.6949 21.3553 19.7605C22.2878 18.8247 23.5767 18.2466 24.9998 18.2466ZM28.1439 20.2603C27.3399 19.4551 26.2279 18.9564 24.9998 18.9564C23.7722 18.9564 22.6603 19.4551 21.8562 20.261C21.052 21.066 20.5541 22.18 20.5541 23.4106C20.5541 24.6406 21.0518 25.7547 21.8562 26.5605C22.6603 27.3663 23.7722 27.8651 24.9998 27.8651C26.2279 27.8651 27.34 27.3664 28.1439 26.5612C28.9475 25.7555 29.4452 24.6413 29.4452 23.4108C29.4452 22.1805 28.9475 21.0659 28.1439 20.2603ZM27.0541 16.8723L24.9997 15.7566L22.9457 16.8723C22.9088 16.892 22.8679 16.9055 22.8241 16.9111L20.5093 17.2182L19.5104 19.3133C19.492 19.3577 19.4645 19.3988 19.4276 19.4339L17.7349 21.0457L18.159 23.3471C18.1666 23.3881 18.1667 23.4312 18.159 23.4745L17.7349 25.776L19.4276 27.3877C19.4577 27.4167 19.4834 27.4517 19.5024 27.4917L20.4711 29.5236L20.5093 29.6033L22.8079 29.9081C22.8547 29.912 22.9016 29.9254 22.9456 29.9492C23.6305 30.3211 24.3148 30.6929 24.9996 31.0648L27.054 29.9492C27.0909 29.9295 27.1317 29.916 27.1755 29.9104L29.4904 29.6033L29.5247 29.5312L30.4893 27.5085C30.5077 27.4641 30.5352 27.423 30.5721 27.3879L32.2648 25.7761L31.8407 23.4746C31.8331 23.4335 31.8329 23.3905 31.8407 23.3472L32.2648 21.0458L30.5721 19.4341C30.542 19.4051 30.5163 19.3701 30.4973 19.3301L29.4904 17.2182L27.1918 16.9134C27.145 16.9095 27.0981 16.8961 27.0541 16.8723Z" fill="white"/>
<defs>
<filter id="filter0_b_4_624" x="-42.5" y="-42.5" width="136" height="136" filterUnits="userSpaceOnUse" color-interpolation-filters="sRGB">
<feFlood flood-opacity="0" result="BackgroundImageFix"/>
<feGaussianBlur in="BackgroundImageFix" stdDeviation="21.25"/>
<feComposite in2="SourceAlpha" operator="in" result="effect1_backgroundBlur_4_624"/>
<feBlend mode="normal" in="SourceGraphic" in2="effect1_backgroundBlur_4_624" result="shape"/>
</filter>
<linearGradient id="paint0_linear_4_624" x1="41.6392" y1="9.19937" x2="21.8418" y2="41.5316" gradientUnits="userSpaceOnUse">
<stop stop-color="#538DFF"/>
<stop offset="1" stop-color="#0056FF"/>
</linearGradient>
</defs>
</svg>
