<svg width="51" height="51" viewBox="0 0 51 51" fill="none" xmlns="http://www.w3.org/2000/svg">
<g filter="url(#filter0_b_4_636)">
<circle cx="25.5" cy="25.5" r="25.5" fill="url(#paint0_linear_4_636)"/>
</g>
<path d="M26.0881 35.2468C21.5994 35.2468 18.6339 30.5177 20.6376 26.4701L25.7274 16.2104C25.8476 15.9299 26.3285 15.9299 26.4488 16.2104L31.5386 26.4701C33.5424 30.5177 30.5768 35.2468 26.0881 35.2468ZM30.8172 26.8308L26.0881 17.2925L21.359 26.8308C19.5957 30.3576 22.1604 34.4853 26.0881 34.4853C30.0155 34.4453 32.5403 30.3576 30.8172 26.8308Z" fill="white"/>
<path d="M26.0882 32.8421C25.8478 32.8421 25.6874 32.6817 25.6874 32.4413C25.6874 32.2008 25.8478 32.0405 26.0882 32.0405C28.2523 32.0405 29.6549 29.7962 28.6931 27.8324C28.613 27.6321 28.6931 27.3916 28.8935 27.3114C29.0938 27.2313 29.3343 27.3114 29.4145 27.5117C30.6168 29.9967 28.8535 32.842 26.0882 32.842V32.8421Z" fill="white"/>
<defs>
<filter id="filter0_b_4_636" x="-42.5" y="-42.5" width="136" height="136" filterUnits="userSpaceOnUse" color-interpolation-filters="sRGB">
<feFlood flood-opacity="0" result="BackgroundImageFix"/>
<feGaussianBlur in="BackgroundImageFix" stdDeviation="21.25"/>
<feComposite in2="SourceAlpha" operator="in" result="effect1_backgroundBlur_4_636"/>
<feBlend mode="normal" in="SourceGraphic" in2="effect1_backgroundBlur_4_636" result="shape"/>
</filter>
<linearGradient id="paint0_linear_4_636" x1="41.6392" y1="9.19937" x2="21.8418" y2="41.5316" gradientUnits="userSpaceOnUse">
<stop stop-color="#538DFF"/>
<stop offset="1" stop-color="#0056FF"/>
</linearGradient>
</defs>
</svg>
