<svg width="51" height="51" viewBox="0 0 51 51" fill="none" xmlns="http://www.w3.org/2000/svg">
<g filter="url(#filter0_b_4_643)">
<circle cx="25.5" cy="25.5" r="25.5" fill="url(#paint0_linear_4_643)"/>
</g>
<path d="M31.5695 21.1666H28.1102C28.4096 21.0333 28.6424 20.9 28.8087 20.7333C29.2079 20.3333 29.4408 19.7666 29.4408 19.1999C29.4408 18.5999 29.2079 18.0665 28.8087 17.6665C28.4096 17.2334 27.8773 17 27.2785 17C26.6798 17 26.1475 17.2334 25.7484 17.6334C25.4157 17.9667 25.1496 18.7 24.9833 19.4334C24.817 18.7 24.5508 18 24.2183 17.6334C23.8191 17.2334 23.2536 17 22.6881 17C22.0893 17 21.5571 17.2334 21.1579 17.6334C20.7587 18.0334 20.5259 18.6 20.5259 19.1668C20.5259 19.7668 20.7587 20.3001 21.1579 20.7001C21.3242 20.8668 21.5571 21.0001 21.8565 21.1335L18.3971 21.1334C17.6321 21.1334 17 21.7668 17 22.5334V23.3C17 23.8334 17.2994 24.2667 17.7318 24.5334V31.6C17.7318 32.3666 18.3639 33 19.1289 33H30.8711C31.6361 33 32.2682 32.3666 32.2682 31.6V24.5334C32.7006 24.3 33 23.8334 33 23.3V22.5334C32.9667 21.8 32.3346 21.1666 31.5696 21.1666L31.5695 21.1666ZM21.6237 20.2666C21.3243 19.9666 21.1912 19.6 21.1912 19.2C21.1912 18.8 21.3575 18.4 21.6237 18.1334C21.9231 17.8334 22.2889 17.7 22.6881 17.7C23.0873 17.7 23.4864 17.8666 23.7525 18.1334C24.1517 18.5334 24.4844 20.0668 24.6173 21.1334C23.5197 20.9666 22.0229 20.6666 21.6236 20.2666H21.6237ZM17.6651 23.3001V22.5334C17.6651 22.1334 17.9978 21.8001 18.3969 21.8001H22.1557L21.7565 24.0001H18.3969C17.9978 24.0335 17.6651 23.7001 17.6651 23.3001ZM21.6568 24.7001L21.2909 26.7335H18.3969V24.7001H21.6568ZM24.6505 32.3335H19.1289C18.7297 32.3335 18.397 32.0002 18.397 31.6002V27.4002H21.1579L21.0248 28.1002C20.9915 28.2335 21.0581 28.3668 21.1911 28.4335C21.2909 28.5002 21.4572 28.5002 21.557 28.4335L22.8543 27.5002L23.6859 28.8002C23.7524 28.9002 23.8522 28.9668 23.952 28.9668H24.0185C24.1516 28.9334 24.2514 28.8334 24.2845 28.7002L24.6172 26.7668L24.6174 32.3337L24.6505 32.3335ZM23.819 27.7335L23.2536 26.8669C23.2202 26.8003 23.1205 26.7335 23.0207 26.7335C22.9209 26.7001 22.8211 26.7335 22.7546 26.8001L21.8232 27.4668L22.8211 21.8668H24.8502L23.819 27.7335ZM26.214 18.1001C26.5134 17.8001 26.8793 17.6667 27.2784 17.6667C27.6776 17.6667 28.0768 17.8333 28.3428 18.1001C28.6422 18.4001 28.7753 18.7667 28.7753 19.1667C28.7753 19.5667 28.609 19.9667 28.3428 20.2333C27.9437 20.6333 26.4135 20.9667 25.3491 21.1C25.4822 20.0334 25.8148 18.5334 26.214 18.0999V18.1001ZM25.5155 21.8335H27.1454L28.1434 27.4335L27.2119 26.7669C27.1454 26.7003 27.0457 26.7003 26.9459 26.7003C26.8461 26.7336 26.7796 26.7669 26.713 26.8336L26.1475 27.7003L25.3159 22.9334L25.5155 21.8335ZM31.5694 31.6001C31.5694 32.0001 31.2368 32.3335 30.8376 32.3335H25.3159V26.7666L25.6486 28.7C25.6819 28.8334 25.7817 28.9334 25.9147 28.9666H25.9812C26.081 28.9666 26.2141 28.9 26.2473 28.8L27.0789 27.5L28.3762 28.4334C28.476 28.5 28.6423 28.5334 28.7421 28.4334C28.8419 28.3667 28.9083 28.2334 28.9083 28.1L28.7753 27.4H31.5361L31.5362 31.6L31.5694 31.6001ZM31.5694 26.7335H28.6755L28.3096 24.7001H31.5694L31.5694 26.7335ZM32.3013 23.3001C32.3013 23.7001 31.9686 24.0335 31.5694 24.0335H28.2099L27.8107 21.8334H31.5694C31.9686 21.8334 32.3013 22.1668 32.3013 22.5668V23.3001Z" fill="white"/>
<defs>
<filter id="filter0_b_4_643" x="-42.5" y="-42.5" width="136" height="136" filterUnits="userSpaceOnUse" color-interpolation-filters="sRGB">
<feFlood flood-opacity="0" result="BackgroundImageFix"/>
<feGaussianBlur in="BackgroundImageFix" stdDeviation="21.25"/>
<feComposite in2="SourceAlpha" operator="in" result="effect1_backgroundBlur_4_643"/>
<feBlend mode="normal" in="SourceGraphic" in2="effect1_backgroundBlur_4_643" result="shape"/>
</filter>
<linearGradient id="paint0_linear_4_643" x1="41.6392" y1="9.19937" x2="21.8418" y2="41.5316" gradientUnits="userSpaceOnUse">
<stop stop-color="#538DFF"/>
<stop offset="1" stop-color="#0056FF"/>
</linearGradient>
</defs>
</svg>
