<svg width="51" height="51" viewBox="0 0 51 51" fill="none" xmlns="http://www.w3.org/2000/svg">
<g filter="url(#filter0_b_4_597)">
<circle cx="25.5" cy="25.5" r="25.5" fill="url(#paint0_linear_4_597)"/>
</g>
<path d="M20.05 26.6338C19.2631 26.6338 18.499 26.4783 17.8034 26.1548C17.3397 25.9398 16.9179 25.6559 16.5497 25.3111C14.265 23.1662 14.5384 19.149 17.1592 16.3559C18.4176 15.0163 20.0253 14.1506 21.6866 13.918C23.3856 13.6799 24.938 14.1289 26.0578 15.1818L26.2398 15.3634C26.6034 15.7417 26.8954 16.1718 27.114 16.6486C28.1806 18.9248 27.5117 21.935 25.4482 24.1363L25.448 24.1365C23.9366 25.7464 21.9287 26.6339 20.05 26.6339L20.05 26.6338ZM22.5605 14.7814C22.3172 14.7814 22.0683 14.799 21.815 14.8345C20.3619 15.0379 18.948 15.8033 17.8337 16.9894C15.5622 19.4105 15.27 22.8409 17.1827 24.6366C17.4784 24.9138 17.8185 25.1424 18.193 25.3161C20.1935 26.246 22.8992 25.5004 24.7738 23.5037C26.5805 21.5762 27.1839 18.978 26.275 17.0381C26.098 16.6524 25.8646 16.3081 25.5795 16.0113L25.4144 15.8462C24.6741 15.1507 23.6774 14.7816 22.5607 14.7816L22.5605 14.7814Z" fill="white"/>
<path d="M20.0132 23.1324C19.6144 23.1324 19.2423 22.9929 18.9668 22.7341C18.5375 22.3308 18.392 21.685 18.5873 21.0485C18.6623 20.8044 18.9213 20.6673 19.1654 20.742C19.4096 20.817 19.5469 21.0758 19.4719 21.3201C19.3809 21.6166 19.43 21.8999 19.6002 22.0596C19.7723 22.2212 20.0051 22.2164 20.1282 22.199C20.3749 22.1644 20.6283 22.0252 20.8237 21.8173C21.1991 21.4175 21.2738 20.8519 20.9866 20.5825C20.3235 19.9601 20.3787 18.8199 21.1097 18.0414C21.8414 17.2618 22.9763 17.1339 23.6395 17.7568C24.0709 18.1616 24.2161 18.808 24.0188 19.4437C23.943 19.6876 23.6847 19.8236 23.4398 19.7483C23.1959 19.6724 23.0594 19.4132 23.1352 19.1692C23.2281 18.8701 23.1801 18.5942 23.0065 18.4313C22.7201 18.1624 22.1603 18.2738 21.7842 18.6746C21.4088 19.0744 21.3336 19.6393 21.62 19.9081C22.2838 20.5313 22.2292 21.6719 21.4982 22.4505C21.1562 22.815 20.7151 23.051 20.2566 23.1152C20.1746 23.1268 20.0933 23.1325 20.0132 23.1325L20.0132 23.1324Z" fill="white"/>
<path d="M23.3638 18.5137C23.2503 18.5137 23.1367 18.4721 23.0473 18.3883C22.8611 18.2135 22.8518 17.9208 23.0268 17.7345L23.7551 16.9588C23.9298 16.7726 24.2224 16.7633 24.4089 16.9383C24.5951 17.1132 24.6045 17.4058 24.4294 17.5922L23.7012 18.3678C23.6102 18.4646 23.4872 18.5137 23.3638 18.5137L23.3638 18.5137Z" fill="white"/>
<path d="M18.5151 23.6786C18.4015 23.6786 18.288 23.637 18.1987 23.5532C18.0124 23.3783 18.0032 23.0857 18.1781 22.8995L18.9136 22.1159C19.0885 21.9298 19.3811 21.9204 19.5673 22.0953C19.7537 22.2702 19.7629 22.5628 19.588 22.749L18.8525 23.5326C18.7615 23.6295 18.6385 23.6786 18.5151 23.6786H18.5151Z" fill="white"/>
<path d="M21.3247 27.9079C20.5378 27.9079 19.774 27.7524 19.0784 27.4289C18.6144 27.2137 18.1925 26.9296 17.8247 26.5851L16.5396 25.3001L17.1936 24.6461L18.4679 25.9204C18.753 26.1871 19.0929 26.4159 19.4678 26.59C21.4677 27.5192 24.174 26.7742 26.0487 24.7772C27.8556 22.85 28.4589 20.2515 27.55 18.3116C27.373 17.9257 27.1396 17.5815 26.8545 17.285L25.5865 16.0171L26.2405 15.363L27.5148 16.6374C27.8783 17.0155 28.1703 17.4456 28.3891 17.9225C29.4556 20.1987 28.7868 23.209 26.7232 25.4103C25.212 27.0202 23.2038 27.9079 21.3248 27.9079L21.3247 27.9079Z" fill="white"/>
<path d="M26.6947 33.8182C23.2738 33.8182 20.3513 32.3824 19.5881 30.3266C19.4592 29.9988 19.3921 29.6428 19.3921 29.2773C19.3921 28.5073 19.6989 27.7515 20.2794 27.0911L20.9741 27.7021C20.5381 28.1977 20.3171 28.7276 20.3171 29.2773C20.3171 29.5267 20.3625 29.7686 20.4522 29.9963C21.0768 31.6784 23.701 32.8932 26.6947 32.8932C29.69 32.8932 32.3149 31.6784 32.9365 30.0046C33.0292 29.7686 33.0746 29.5268 33.0746 29.2773C33.0746 27.3173 30.1529 25.6614 26.6945 25.6614C26.5572 25.6614 26.4222 25.6639 26.2895 25.6684L26.257 24.7439C26.4002 24.7388 26.5461 24.7362 26.6945 24.7362C30.7908 24.7362 33.9997 26.7307 33.9997 29.2772C33.9997 29.6429 33.9328 29.9987 33.8006 30.3347C33.0403 32.3825 30.1168 33.8183 26.6949 33.8183L26.6947 33.8182Z" fill="white"/>
<path d="M26.6948 31.2342C26.1204 31.2342 25.5845 31.0529 25.261 30.7491C25.0748 30.5742 25.0656 30.2814 25.2405 30.0952C25.4153 29.9091 25.7081 29.8997 25.8944 30.0747C26.0186 30.1914 26.3143 30.3092 26.6949 30.3092C27.2226 30.3092 27.5182 30.0985 27.5414 30.0184C27.5177 29.9499 27.2212 29.7397 26.6949 29.7397C25.6863 29.7397 24.9258 29.2197 24.9258 28.5302C24.9258 27.84 25.6863 27.3197 26.6949 27.3197C27.2717 27.3197 27.8081 27.5015 28.1301 27.8059C28.3157 27.9815 28.3237 28.2743 28.1484 28.46C27.973 28.6455 27.6802 28.6539 27.4943 28.4782C27.3715 28.362 27.0768 28.2449 26.6949 28.2449C26.1684 28.2449 25.8736 28.4556 25.8504 28.5356C25.8739 28.6042 26.1697 28.8146 26.6949 28.8146C27.7047 28.8146 28.466 29.3345 28.466 30.0239C28.4659 30.7139 27.7045 31.2342 26.6948 31.2342L26.6948 31.2342Z" fill="white"/>
<path d="M26.6959 28.2449C26.4405 28.2449 26.2334 28.0378 26.2334 27.7824V27.2129C26.2334 26.9575 26.4405 26.7504 26.6959 26.7504C26.9513 26.7504 27.1584 26.9575 27.1584 27.2129V27.7824C27.1584 28.0378 26.9513 28.2449 26.6959 28.2449Z" fill="white"/>
<path d="M26.6959 31.8036C26.4405 31.8036 26.2334 31.5965 26.2334 31.3411V30.7716C26.2334 30.5162 26.4405 30.3091 26.6959 30.3091C26.9513 30.3091 27.1584 30.5162 27.1584 30.7716V31.3411C27.1584 31.5966 26.9513 31.8036 26.6959 31.8036Z" fill="white"/>
<path d="M26.696 35.5973C22.6002 35.5973 19.3916 33.6028 19.3916 31.0568V29.278H20.3166V31.0568C20.3166 33.0166 23.2378 34.6723 26.6959 34.6723C30.1537 34.6723 33.0748 33.0166 33.0748 31.0569V29.2781H33.9998V31.0569C34 33.6029 30.7916 35.5975 26.6958 35.5975L26.696 35.5973Z" fill="white"/>
<defs>
<filter id="filter0_b_4_597" x="-42.5" y="-42.5" width="136" height="136" filterUnits="userSpaceOnUse" color-interpolation-filters="sRGB">
<feFlood flood-opacity="0" result="BackgroundImageFix"/>
<feGaussianBlur in="BackgroundImageFix" stdDeviation="21.25"/>
<feComposite in2="SourceAlpha" operator="in" result="effect1_backgroundBlur_4_597"/>
<feBlend mode="normal" in="SourceGraphic" in2="effect1_backgroundBlur_4_597" result="shape"/>
</filter>
<linearGradient id="paint0_linear_4_597" x1="41.6392" y1="9.19937" x2="21.8418" y2="41.5316" gradientUnits="userSpaceOnUse">
<stop stop-color="#538DFF"/>
<stop offset="1" stop-color="#0056FF"/>
</linearGradient>
</defs>
</svg>
