<svg width="51" height="51" viewBox="0 0 51 51" fill="none" xmlns="http://www.w3.org/2000/svg">
<g filter="url(#filter0_b_4_629)">
<circle cx="25.5" cy="25.5" r="25.5" fill="url(#paint0_linear_4_629)"/>
</g>
<path d="M29.4188 22.2946L23.9741 26.7634L21.6563 23.7721C21.5346 23.624 21.3453 23.5514 21.1572 23.5803C20.9691 23.6093 20.8097 23.7358 20.7371 23.9137C20.6643 24.0917 20.6888 24.2953 20.8018 24.4502L23.4562 27.8799C23.545 27.9948 23.6753 28.0694 23.8184 28.087H23.8799C24.0046 28.087 24.1253 28.0437 24.2222 27.9641L30.1035 23.1509C30.2541 23.0272 30.3283 22.8314 30.2977 22.6374C30.2671 22.4434 30.1367 22.2805 29.9554 22.2103C29.7742 22.1401 29.5697 22.173 29.419 22.2967L29.4188 22.2946Z" fill="white"/>
<path d="M25.5 17.0001C23.2456 17.0001 21.0837 17.8956 19.4896 19.4896C17.8955 21.0838 17 23.2457 17 25.5C17 27.7544 17.8956 29.9163 19.4896 31.5104C21.0837 33.1045 23.2456 34 25.5 34C27.7544 34 29.9163 33.1044 31.5104 31.5104C33.1045 29.9163 34 27.7544 34 25.5C33.9976 23.2464 33.1012 21.0857 31.5077 19.4923C29.9142 17.8988 27.7536 17.0024 25.4999 17L25.5 17.0001ZM25.5 32.8914C23.5396 32.8914 21.6598 32.1126 20.2736 30.7265C18.8874 29.3404 18.1087 27.4604 18.1087 25.5001C18.1087 23.5398 18.8875 21.6599 20.2736 20.2737C21.6597 18.8875 23.5396 18.1088 25.5 18.1088C27.4604 18.1088 29.3402 18.8876 30.7264 20.2737C32.1126 21.6598 32.8913 23.5398 32.8913 25.5001C32.8913 26.7975 32.5497 28.0722 31.901 29.1958C31.2523 30.3193 30.3192 31.2524 29.1956 31.9011C28.0721 32.5498 26.7974 32.8914 25.5 32.8914L25.5 32.8914Z" fill="white"/>
<defs>
<filter id="filter0_b_4_629" x="-42.5" y="-42.5" width="136" height="136" filterUnits="userSpaceOnUse" color-interpolation-filters="sRGB">
<feFlood flood-opacity="0" result="BackgroundImageFix"/>
<feGaussianBlur in="BackgroundImageFix" stdDeviation="21.25"/>
<feComposite in2="SourceAlpha" operator="in" result="effect1_backgroundBlur_4_629"/>
<feBlend mode="normal" in="SourceGraphic" in2="effect1_backgroundBlur_4_629" result="shape"/>
</filter>
<linearGradient id="paint0_linear_4_629" x1="41.6392" y1="9.19937" x2="21.8418" y2="41.5316" gradientUnits="userSpaceOnUse">
<stop stop-color="#538DFF"/>
<stop offset="1" stop-color="#0056FF"/>
</linearGradient>
</defs>
</svg>
