<svg width="320" height="350" viewBox="0 0 320 350" fill="none" xmlns="http://www.w3.org/2000/svg">
<g filter="url(#filter0_bd_101_211)">
<mask id="path-1-inside-1_101_211" fill="white">
<path d="M284.593 239.464C269.204 253.875 250.915 264.835 230.95 271.61C210.985 278.385 189.804 280.82 168.822 278.752C147.841 276.684 127.542 270.16 109.285 259.617C91.0268 249.074 75.2302 234.754 62.9511 217.616C50.6719 200.477 42.1932 180.915 38.0817 160.236C33.9703 139.557 34.3209 118.239 39.1101 97.7072C43.8993 77.175 53.0168 57.9019 65.8529 41.1764C78.689 24.451 94.9479 10.6586 113.543 0.721537L150.524 69.9218C141.779 74.5948 134.133 81.0808 128.097 88.9461C122.061 96.8115 117.773 105.875 115.521 115.53C113.269 125.186 113.104 135.211 115.037 144.935C116.971 154.66 120.958 163.859 126.732 171.919C132.507 179.978 139.935 186.712 148.521 191.67C157.107 196.628 166.653 199.696 176.519 200.669C186.386 201.641 196.347 200.496 205.736 197.31C215.125 194.124 223.725 188.97 230.962 182.193L284.593 239.464Z"/>
</mask>
<path d="M284.593 239.464C269.204 253.875 250.915 264.835 230.95 271.61C210.985 278.385 189.804 280.82 168.822 278.752C147.841 276.684 127.542 270.16 109.285 259.617C91.0268 249.074 75.2302 234.754 62.9511 217.616C50.6719 200.477 42.1932 180.915 38.0817 160.236C33.9703 139.557 34.3209 118.239 39.1101 97.7072C43.8993 77.175 53.0168 57.9019 65.8529 41.1764C78.689 24.451 94.9479 10.6586 113.543 0.721537L150.524 69.9218C141.779 74.5948 134.133 81.0808 128.097 88.9461C122.061 96.8115 117.773 105.875 115.521 115.53C113.269 125.186 113.104 135.211 115.037 144.935C116.971 154.66 120.958 163.859 126.732 171.919C132.507 179.978 139.935 186.712 148.521 191.67C157.107 196.628 166.653 199.696 176.519 200.669C186.386 201.641 196.347 200.496 205.736 197.31C215.125 194.124 223.725 188.97 230.962 182.193L284.593 239.464Z" fill="url(#paint0_linear_101_211)"/>
<path d="M284.593 239.464C269.204 253.875 250.915 264.835 230.95 271.61C210.985 278.385 189.804 280.82 168.822 278.752C147.841 276.684 127.542 270.16 109.285 259.617C91.0268 249.074 75.2302 234.754 62.9511 217.616C50.6719 200.477 42.1932 180.915 38.0817 160.236C33.9703 139.557 34.3209 118.239 39.1101 97.7072C43.8993 77.175 53.0168 57.9019 65.8529 41.1764C78.689 24.451 94.9479 10.6586 113.543 0.721537L150.524 69.9218C141.779 74.5948 134.133 81.0808 128.097 88.9461C122.061 96.8115 117.773 105.875 115.521 115.53C113.269 125.186 113.104 135.211 115.037 144.935C116.971 154.66 120.958 163.859 126.732 171.919C132.507 179.978 139.935 186.712 148.521 191.67C157.107 196.628 166.653 199.696 176.519 200.669C186.386 201.641 196.347 200.496 205.736 197.31C215.125 194.124 223.725 188.97 230.962 182.193L284.593 239.464Z" stroke="white" stroke-width="2" mask="url(#path-1-inside-1_101_211)"/>
</g>
<defs>
<filter id="filter0_bd_101_211" x="-24.7619" y="-59.2786" width="369.355" height="408.745" filterUnits="userSpaceOnUse" color-interpolation-filters="sRGB">
<feFlood flood-opacity="0" result="BackgroundImageFix"/>
<feGaussianBlur in="BackgroundImageFix" stdDeviation="30"/>
<feComposite in2="SourceAlpha" operator="in" result="effect1_backgroundBlur_101_211"/>
<feColorMatrix in="SourceAlpha" type="matrix" values="0 0 0 0 0 0 0 0 0 0 0 0 0 0 0 0 0 0 127 0" result="hardAlpha"/>
<feOffset dy="35"/>
<feGaussianBlur stdDeviation="17.5"/>
<feComposite in2="hardAlpha" operator="out"/>
<feColorMatrix type="matrix" values="0 0 0 0 0.32549 0 0 0 0 0.552941 0 0 0 0 1 0 0 0 0.3 0"/>
<feBlend mode="normal" in2="effect1_backgroundBlur_101_211" result="effect2_dropShadow_101_211"/>
<feBlend mode="normal" in="SourceGraphic" in2="effect2_dropShadow_101_211" result="shape"/>
</filter>
<linearGradient id="paint0_linear_101_211" x1="145.971" y1="78.0302" x2="183.65" y2="234.543" gradientUnits="userSpaceOnUse">
<stop offset="0.0401148" stop-color="white"/>
<stop offset="1" stop-color="#E8F0FF"/>
</linearGradient>
</defs>
</svg>
