<svg width="1440" height="673" viewBox="0 0 1440 673" fill="none" xmlns="http://www.w3.org/2000/svg">
<g filter="url(#filter0_bd_3_419)">
<mask id="path-1-inside-1_3_419" fill="white">
<path d="M864.593 304.464C849.204 318.875 830.915 329.835 810.95 336.61C790.985 343.385 769.804 345.82 748.822 343.752C727.841 341.684 707.542 335.16 689.285 324.617C671.027 314.074 655.23 299.754 642.951 282.616C630.672 265.477 622.193 245.915 618.082 225.236C613.97 204.557 614.321 183.239 619.11 162.707C623.899 142.175 633.017 122.902 645.853 106.176C658.689 89.451 674.948 75.6586 693.543 65.7215L730.524 134.922C721.779 139.595 714.133 146.081 708.097 153.946C702.061 161.811 697.773 170.875 695.521 180.53C693.269 190.186 693.104 200.211 695.037 209.935C696.971 219.66 700.958 228.859 706.732 236.919C712.507 244.978 719.935 251.712 728.521 256.67C737.107 261.628 746.653 264.696 756.519 265.669C766.386 266.641 776.347 265.496 785.736 262.31C795.125 259.124 803.725 253.97 810.962 247.193L864.593 304.464Z"/>
</mask>
<path d="M864.593 304.464C849.204 318.875 830.915 329.835 810.95 336.61C790.985 343.385 769.804 345.82 748.822 343.752C727.841 341.684 707.542 335.16 689.285 324.617C671.027 314.074 655.23 299.754 642.951 282.616C630.672 265.477 622.193 245.915 618.082 225.236C613.97 204.557 614.321 183.239 619.11 162.707C623.899 142.175 633.017 122.902 645.853 106.176C658.689 89.451 674.948 75.6586 693.543 65.7215L730.524 134.922C721.779 139.595 714.133 146.081 708.097 153.946C702.061 161.811 697.773 170.875 695.521 180.53C693.269 190.186 693.104 200.211 695.037 209.935C696.971 219.66 700.958 228.859 706.732 236.919C712.507 244.978 719.935 251.712 728.521 256.67C737.107 261.628 746.653 264.696 756.519 265.669C766.386 266.641 776.347 265.496 785.736 262.31C795.125 259.124 803.725 253.97 810.962 247.193L864.593 304.464Z" fill="url(#paint0_linear_3_419)" shape-rendering="crispEdges"/>
<path d="M864.593 304.464C849.204 318.875 830.915 329.835 810.95 336.61C790.985 343.385 769.804 345.82 748.822 343.752C727.841 341.684 707.542 335.16 689.285 324.617C671.027 314.074 655.23 299.754 642.951 282.616C630.672 265.477 622.193 245.915 618.082 225.236C613.97 204.557 614.321 183.239 619.11 162.707C623.899 142.175 633.017 122.902 645.853 106.176C658.689 89.451 674.948 75.6586 693.543 65.7215L730.524 134.922C721.779 139.595 714.133 146.081 708.097 153.946C702.061 161.811 697.773 170.875 695.521 180.53C693.269 190.186 693.104 200.211 695.037 209.935C696.971 219.66 700.958 228.859 706.732 236.919C712.507 244.978 719.935 251.712 728.521 256.67C737.107 261.628 746.653 264.696 756.519 265.669C766.386 266.641 776.347 265.496 785.736 262.31C795.125 259.124 803.725 253.97 810.962 247.193L864.593 304.464Z" stroke="white" stroke-width="2" shape-rendering="crispEdges" mask="url(#path-1-inside-1_3_419)"/>
</g>
<defs>
<filter id="filter0_bd_3_419" x="555.238" y="5.72144" width="369.355" height="408.745" filterUnits="userSpaceOnUse" color-interpolation-filters="sRGB">
<feFlood flood-opacity="0" result="BackgroundImageFix"/>
<feGaussianBlur in="BackgroundImageFix" stdDeviation="30"/>
<feComposite in2="SourceAlpha" operator="in" result="effect1_backgroundBlur_3_419"/>
<feColorMatrix in="SourceAlpha" type="matrix" values="0 0 0 0 0 0 0 0 0 0 0 0 0 0 0 0 0 0 127 0" result="hardAlpha"/>
<feOffset dy="35"/>
<feGaussianBlur stdDeviation="17.5"/>
<feComposite in2="hardAlpha" operator="out"/>
<feColorMatrix type="matrix" values="0 0 0 0 0.32549 0 0 0 0 0.552941 0 0 0 0 1 0 0 0 0.3 0"/>
<feBlend mode="normal" in2="effect1_backgroundBlur_3_419" result="effect2_dropShadow_3_419"/>
<feBlend mode="normal" in="SourceGraphic" in2="effect2_dropShadow_3_419" result="shape"/>
</filter>
<linearGradient id="paint0_linear_3_419" x1="725.971" y1="143.03" x2="763.65" y2="299.543" gradientUnits="userSpaceOnUse">
<stop offset="0.0401148" stop-color="white"/>
<stop offset="1" stop-color="white" stop-opacity="0"/>
</linearGradient>
</defs>
</svg>
