<svg width="72" height="72" viewBox="0 0 72 72" fill="none" xmlns="http://www.w3.org/2000/svg">
<g filter="url(#filter0_b_3_348)">
<circle cx="36" cy="36" r="36" fill="#101010"/>
</g>
<path d="M31.8079 34.6157C31.4202 35.4797 30.656 36.1166 29.7361 36.3418V44.0911C29.7361 44.5065 29.3996 44.843 28.9842 44.843C28.569 44.843 28.2322 44.5065 28.2322 44.0911V36.3452C28.0523 36.2993 27.876 36.2387 27.7058 36.1648C26.9198 35.8088 26.3175 35.1411 26.0445 34.3222C25.7717 33.5037 25.8525 32.6082 26.2677 31.8515C26.6829 31.095 27.395 30.5458 28.2322 30.3366V27.5466C28.2322 27.1312 28.569 26.7947 28.9842 26.7947C29.3997 26.7947 29.7362 27.1312 29.7362 27.5466V30.3329C30.725 30.5744 31.5305 31.2897 31.8869 32.2428C32.1796 33.0124 32.1513 33.8671 31.8079 34.6154L31.8079 34.6157ZM30.4804 32.7732L30.4807 32.7735C30.2924 32.2741 29.8675 31.9014 29.3476 31.7805C28.8278 31.6593 28.282 31.8059 27.8925 32.1708C27.503 32.5359 27.3215 33.0712 27.4085 33.5976C27.4956 34.1243 27.84 34.5725 28.326 34.7926C28.5311 34.8873 28.7546 34.936 28.9804 34.9355C29.2881 34.9355 29.5894 34.8469 29.8481 34.6803C30.1069 34.5135 30.3121 34.2759 30.4393 33.9955C30.6187 33.6112 30.6362 33.1709 30.488 32.7735L30.4804 32.7732Z" fill="white"/>
<path d="M45.7204 34.6157C45.3325 35.4797 44.5682 36.1166 43.6484 36.3418V44.0911C43.6484 44.5065 43.3119 44.843 42.8964 44.843C42.4812 44.843 42.1444 44.5065 42.1444 44.0911V36.3452C41.9645 36.2993 41.7885 36.2387 41.618 36.1648C40.832 35.8088 40.2298 35.1411 39.957 34.3222C39.684 33.5037 39.7648 32.6082 40.18 31.8515C40.5954 31.095 41.3073 30.5458 42.1445 30.3366V27.5466C42.1445 27.1312 42.4813 26.7947 42.8964 26.7947C43.3119 26.7947 43.6484 27.1312 43.6484 27.5466V30.3329C44.6374 30.5744 45.4427 31.2897 45.7994 32.2428C46.0921 33.0124 46.0635 33.8671 45.7204 34.6154L45.7204 34.6157ZM44.3929 32.7732V32.7735C44.2049 32.2741 43.7797 31.9014 43.2599 31.7805C42.74 31.6593 42.1942 31.8059 41.8047 32.1708C41.4152 32.5359 41.2337 33.0712 41.3208 33.5976C41.4079 34.1243 41.7522 34.5725 42.2382 34.7926C42.4436 34.8867 42.6668 34.9355 42.8927 34.9355C43.2003 34.9355 43.5017 34.8469 43.7606 34.6803C44.0192 34.5135 44.2243 34.2759 44.3515 33.9955C44.5285 33.6102 44.5435 33.1698 44.3929 32.7735L44.3929 32.7732Z" fill="white"/>
<path d="M37.0345 41.0829C36.9217 41.1244 36.8089 41.1582 36.6922 41.1881L36.6925 44.0911C36.6925 44.5065 36.3557 44.843 35.9405 44.843C35.525 44.843 35.1883 44.5065 35.1883 44.0911V41.1771C34.2975 40.9521 33.5522 40.3444 33.1522 39.5173C32.7524 38.6901 32.7393 37.7283 33.1165 36.8906C33.4533 36.1399 34.0762 35.5552 34.8463 35.2662C34.9591 35.2248 35.0755 35.191 35.1886 35.1611L35.1883 27.5468C35.1883 27.1314 35.5251 26.7949 35.9405 26.7949C36.3557 26.7949 36.6925 27.1314 36.6925 27.5468V35.1651C36.8732 35.2081 37.0497 35.2684 37.2189 35.3456C37.9743 35.681 38.5642 36.3045 38.8576 37.0772C39.1511 37.8501 39.1236 38.708 38.7811 39.4603C38.4388 40.2128 37.8101 40.7969 37.0345 41.0833L37.0345 41.0829ZM37.4481 37.605C37.2986 37.2082 36.9975 36.8872 36.6114 36.7125C36.2251 36.5378 35.7852 36.5239 35.3886 36.6736C34.9918 36.8234 34.671 37.1245 34.4966 37.5109C34.2731 38.0053 34.3159 38.5792 34.6099 39.035C34.9039 39.4911 35.4091 39.7665 35.9517 39.767C36.1443 39.7668 36.3352 39.7324 36.5157 39.6655C36.9086 39.5139 37.2251 39.212 37.3956 38.827C37.576 38.443 37.5949 38.0029 37.4481 37.605L37.4481 37.605Z" fill="white"/>
<defs>
<filter id="filter0_b_3_348" x="-60" y="-60" width="192" height="192" filterUnits="userSpaceOnUse" color-interpolation-filters="sRGB">
<feFlood flood-opacity="0" result="BackgroundImageFix"/>
<feGaussianBlur in="BackgroundImageFix" stdDeviation="30"/>
<feComposite in2="SourceAlpha" operator="in" result="effect1_backgroundBlur_3_348"/>
<feBlend mode="normal" in="SourceGraphic" in2="effect1_backgroundBlur_3_348" result="shape"/>
</filter>
</defs>
</svg>
