<svg width="51" height="51" viewBox="0 0 51 51" fill="none" xmlns="http://www.w3.org/2000/svg">
<g filter="url(#filter0_b_4_612)">
<circle cx="25.5" cy="25.5" r="25.5" fill="url(#paint0_linear_4_612)"/>
</g>
<path d="M32.7783 32.362H18.9304C18.6063 32.362 18.2956 32.2332 18.0664 32.0041C17.8373 31.7749 17.7085 31.4642 17.7085 31.1401V20.3469C17.7085 20.0228 17.8373 19.7121 18.0664 19.4829C18.2956 19.2538 18.6063 19.125 18.9304 19.125H32.7783C33.1024 19.125 33.4131 19.2538 33.6423 19.4829C33.8714 19.7121 34.0002 20.0228 34.0002 20.3469V31.1401C34.0002 31.4642 33.8714 31.7749 33.6423 32.0041C33.4131 32.2332 33.1024 32.362 32.7783 32.362ZM18.9304 19.9396C18.7055 19.9396 18.5231 20.122 18.5231 20.3469V31.1401C18.5231 31.2482 18.566 31.3517 18.6424 31.4281C18.7188 31.5044 18.8223 31.5474 18.9304 31.5474H32.7783C32.8864 31.5474 32.9899 31.5044 33.0663 31.4281C33.1426 31.3517 33.1856 31.2482 33.1856 31.1401V20.3469C33.1856 20.2388 33.1426 20.1353 33.0663 20.0589C32.9899 19.9825 32.8864 19.9396 32.7783 19.9396H18.9304Z" fill="#222222"/>
<path d="M32.7783 32.362H18.9304C18.6063 32.362 18.2956 32.2332 18.0664 32.0041C17.8373 31.7749 17.7085 31.4642 17.7085 31.1401V20.3469C17.7085 20.0228 17.8373 19.7121 18.0664 19.4829C18.2956 19.2538 18.6063 19.125 18.9304 19.125H32.7783C33.1024 19.125 33.4131 19.2538 33.6423 19.4829C33.8714 19.7121 34.0002 20.0228 34.0002 20.3469V31.1401C34.0002 31.4642 33.8714 31.7749 33.6423 32.0041C33.4131 32.2332 33.1024 32.362 32.7783 32.362ZM18.9304 19.9396C18.7055 19.9396 18.5231 20.122 18.5231 20.3469V31.1401C18.5231 31.2482 18.566 31.3517 18.6424 31.4281C18.7188 31.5044 18.8223 31.5474 18.9304 31.5474H32.7783C32.8864 31.5474 32.9899 31.5044 33.0663 31.4281C33.1426 31.3517 33.1856 31.2482 33.1856 31.1401V20.3469C33.1856 20.2388 33.1426 20.1353 33.0663 20.0589C32.9899 19.9825 32.8864 19.9396 32.7783 19.9396H18.9304Z" fill="white"/>
<path d="M18.1157 21.3652H33.1855V22.1798H18.1157V21.3652Z" fill="#222222"/>
<path d="M18.1157 21.3652H33.1855V22.1798H18.1157V21.3652Z" fill="white"/>
<path d="M19.9484 20.7542C19.9484 20.9791 19.766 21.1615 19.5411 21.1615C19.3162 21.1615 19.1338 20.9791 19.1338 20.7542C19.1338 20.5293 19.3162 20.3469 19.5411 20.3469C19.766 20.3469 19.9484 20.5293 19.9484 20.7542Z" fill="#222222"/>
<path d="M19.9484 20.7542C19.9484 20.9791 19.766 21.1615 19.5411 21.1615C19.3162 21.1615 19.1338 20.9791 19.1338 20.7542C19.1338 20.5293 19.3162 20.3469 19.5411 20.3469C19.766 20.3469 19.9484 20.5293 19.9484 20.7542Z" fill="white"/>
<path d="M21.3742 20.7542C21.3742 20.9791 21.1918 21.1615 20.9669 21.1615C20.742 21.1615 20.5596 20.9791 20.5596 20.7542C20.5596 20.5293 20.742 20.3469 20.9669 20.3469C21.1918 20.3469 21.3742 20.5293 21.3742 20.7542Z" fill="#222222"/>
<path d="M21.3742 20.7542C21.3742 20.9791 21.1918 21.1615 20.9669 21.1615C20.742 21.1615 20.5596 20.9791 20.5596 20.7542C20.5596 20.5293 20.742 20.3469 20.9669 20.3469C21.1918 20.3469 21.3742 20.5293 21.3742 20.7542Z" fill="white"/>
<path d="M22.7994 20.7542C22.7994 20.9791 22.6171 21.1615 22.3922 21.1615C22.1673 21.1615 21.9849 20.9791 21.9849 20.7542C21.9849 20.5293 22.1673 20.3469 22.3922 20.3469C22.6171 20.3469 22.7994 20.5293 22.7994 20.7542Z" fill="#222222"/>
<path d="M22.7994 20.7542C22.7994 20.9791 22.6171 21.1615 22.3922 21.1615C22.1673 21.1615 21.9849 20.9791 21.9849 20.7542C21.9849 20.5293 22.1673 20.3469 22.3922 20.3469C22.6171 20.3469 22.7994 20.5293 22.7994 20.7542Z" fill="white"/>
<path d="M31.9639 28.4928H19.7451V23.4016H31.9639V28.4928ZM20.5597 27.6782H31.1493V24.2162H20.5597V27.6782Z" fill="#222222"/>
<path d="M31.9639 28.4928H19.7451V23.4016H31.9639V28.4928ZM20.5597 27.6782H31.1493V24.2162H20.5597V27.6782Z" fill="white"/>
<path d="M27.6872 30.5292H24.0215C23.7967 30.5292 23.6143 30.3468 23.6143 30.1219C23.6143 29.897 23.7967 29.7146 24.0215 29.7146H27.6872C27.9121 29.7146 28.0945 29.897 28.0945 30.1219C28.0945 30.3468 27.9121 30.5292 27.6872 30.5292Z" fill="#222222"/>
<path d="M27.6872 30.5292H24.0215C23.7967 30.5292 23.6143 30.3468 23.6143 30.1219C23.6143 29.897 23.7967 29.7146 24.0215 29.7146H27.6872C27.9121 29.7146 28.0945 29.897 28.0945 30.1219C28.0945 30.3468 27.9121 30.5292 27.6872 30.5292Z" fill="white"/>
<defs>
<filter id="filter0_b_4_612" x="-42.5" y="-42.5" width="136" height="136" filterUnits="userSpaceOnUse" color-interpolation-filters="sRGB">
<feFlood flood-opacity="0" result="BackgroundImageFix"/>
<feGaussianBlur in="BackgroundImageFix" stdDeviation="21.25"/>
<feComposite in2="SourceAlpha" operator="in" result="effect1_backgroundBlur_4_612"/>
<feBlend mode="normal" in="SourceGraphic" in2="effect1_backgroundBlur_4_612" result="shape"/>
</filter>
<linearGradient id="paint0_linear_4_612" x1="41.6392" y1="9.19937" x2="21.8418" y2="41.5316" gradientUnits="userSpaceOnUse">
<stop stop-color="#538DFF"/>
<stop offset="1" stop-color="#0056FF"/>
</linearGradient>
</defs>
</svg>
