<svg width="51" height="51" viewBox="0 0 51 51" fill="none" xmlns="http://www.w3.org/2000/svg">
<g filter="url(#filter0_b_4_658)">
<circle cx="25.5" cy="25.5" r="25.5" fill="url(#paint0_linear_4_658)"/>
</g>
<path d="M16.5 25.5H19.1246C19.2468 23.8496 19.9579 22.298 21.128 21.128C22.298 19.9578 23.8496 19.2468 25.5 19.1246V16.5C25.5 16.2239 25.7239 16 26 16C26.2761 16 26.5 16.2239 26.5 16.5V19.1246C28.1504 19.2468 29.702 19.9579 30.872 21.128C32.0422 22.298 32.7532 23.8496 32.8754 25.5H35.5C35.7761 25.5 36 25.7239 36 26C36 26.2761 35.7761 26.5 35.5 26.5H32.8754C32.7532 28.1504 32.0421 29.702 30.872 30.872C29.702 32.0422 28.1504 32.7532 26.5 32.8754V35.5C26.5 35.7761 26.2761 36 26 36C25.7239 36 25.5 35.7761 25.5 35.5V32.8754C23.8496 32.7532 22.298 32.0421 21.128 30.872C19.9578 29.702 19.2468 28.1504 19.1246 26.5H16.5C16.2239 26.5 16 26.2761 16 26C16 25.7239 16.2239 25.5 16.5 25.5ZM25.5002 31.8721V30.276C25.5002 29.9999 25.7241 29.776 26.0002 29.776C26.2763 29.776 26.5002 29.9999 26.5002 30.276V31.8721C27.8849 31.7522 29.1828 31.1478 30.1654 30.1651C31.1481 29.1824 31.7526 27.8846 31.8724 26.4999H30.2763C30.0003 26.4999 29.7763 26.276 29.7763 25.9999C29.7763 25.7238 30.0002 25.4999 30.2763 25.4999H31.8724C31.7526 24.1153 31.1481 22.8174 30.1654 21.8347C29.1828 20.852 27.8849 20.2476 26.5002 20.1278V21.7238C26.5002 21.9999 26.2763 22.2238 26.0002 22.2238C25.7241 22.2238 25.5002 21.9999 25.5002 21.7238V20.1278C24.1156 20.2476 22.8177 20.852 21.835 21.8347C20.8524 22.8174 20.2479 24.1153 20.1281 25.4999H21.7241C22.0002 25.4999 22.2242 25.7238 22.2242 25.9999C22.2242 26.276 22.0002 26.4999 21.7241 26.4999H20.1281C20.2479 27.8846 20.8524 29.1824 21.835 30.1651C22.8177 31.1478 24.1156 31.7522 25.5002 31.8721Z" fill="white"/>
<path d="M25.9998 23.6636C26.6194 23.6636 27.2139 23.9098 27.6519 24.3481C28.0902 24.7861 28.3364 25.3805 28.3364 26.0002C28.3364 26.6199 28.0902 27.2143 27.6519 27.6524C27.2139 28.0906 26.6194 28.3368 25.9998 28.3368C25.3801 28.3368 24.7857 28.0906 24.3476 27.6524C23.9094 27.2143 23.6632 26.6199 23.6632 26.0002C23.6639 25.3807 23.9103 24.7868 24.3483 24.3488C24.7864 23.9108 25.3803 23.6643 25.9997 23.6636L25.9998 23.6636ZM25.9998 27.3368C26.3543 27.3368 26.6942 27.1959 26.945 26.9454C27.1955 26.6947 27.3364 26.3546 27.3364 26.0002C27.3364 25.6457 27.1955 25.3057 26.945 25.055C26.6943 24.8045 26.3543 24.6636 25.9998 24.6636C25.6453 24.6636 25.3054 24.8045 25.0546 25.055C24.8041 25.3057 24.6632 25.6457 24.6632 26.0002C24.6635 26.3545 24.8046 26.6943 25.0551 26.9448C25.3057 27.1954 25.6455 27.3364 25.9998 27.3368L25.9998 27.3368Z" fill="white"/>
<defs>
<filter id="filter0_b_4_658" x="-42.5" y="-42.5" width="136" height="136" filterUnits="userSpaceOnUse" color-interpolation-filters="sRGB">
<feFlood flood-opacity="0" result="BackgroundImageFix"/>
<feGaussianBlur in="BackgroundImageFix" stdDeviation="21.25"/>
<feComposite in2="SourceAlpha" operator="in" result="effect1_backgroundBlur_4_658"/>
<feBlend mode="normal" in="SourceGraphic" in2="effect1_backgroundBlur_4_658" result="shape"/>
</filter>
<linearGradient id="paint0_linear_4_658" x1="41.6392" y1="9.19937" x2="21.8418" y2="41.5316" gradientUnits="userSpaceOnUse">
<stop stop-color="#538DFF"/>
<stop offset="1" stop-color="#0056FF"/>
</linearGradient>
</defs>
</svg>
