<svg width="1440" height="1461" viewBox="0 0 1440 1461" fill="none" xmlns="http://www.w3.org/2000/svg">
<g filter="url(#filter0_bd_137_607)">
<path d="M1180.54 314.762L1326.38 235.638L1321.98 401.503L1180.54 314.762Z" fill="url(#paint0_linear_137_607)" shape-rendering="crispEdges"/>
<path d="M1321.51 400.624L1181.54 314.789L1325.86 236.49L1321.51 400.624Z" stroke="black" shape-rendering="crispEdges"/>
</g>
<g filter="url(#filter1_bd_137_607)">
<path fill-rule="evenodd" clip-rule="evenodd" d="M128.955 413.136L106.348 342.768L32.4384 342.525L9.36726 412.741L69.0177 456.381L128.955 413.136ZM68.7414 540.135L208.525 439.28L155.801 275.172L-16.5676 274.604L-70.3732 438.36L68.7414 540.135Z" fill="url(#paint1_linear_137_607)" shape-rendering="crispEdges"/>
<path d="M129.247 413.541L129.542 413.329L129.431 412.983L106.824 342.616L106.712 342.27L106.349 342.268L32.44 342.025L32.0767 342.023L31.9633 342.369L8.89224 412.585L8.77885 412.93L9.07203 413.145L68.7225 456.785L69.0157 456.999L69.3103 456.787L129.247 413.541ZM207.937 439.087L68.7435 539.517L-69.7848 438.171L-16.206 275.105L155.436 275.671L207.937 439.087Z" stroke="black" shape-rendering="crispEdges"/>
</g>
<defs>
<filter id="filter0_bd_137_607" x="1120.54" y="175.637" width="265.842" height="295.865" filterUnits="userSpaceOnUse" color-interpolation-filters="sRGB">
<feFlood flood-opacity="0" result="BackgroundImageFix"/>
<feGaussianBlur in="BackgroundImageFix" stdDeviation="30"/>
<feComposite in2="SourceAlpha" operator="in" result="effect1_backgroundBlur_137_607"/>
<feColorMatrix in="SourceAlpha" type="matrix" values="0 0 0 0 0 0 0 0 0 0 0 0 0 0 0 0 0 0 127 0" result="hardAlpha"/>
<feOffset dy="35"/>
<feGaussianBlur stdDeviation="17.5"/>
<feComposite in2="hardAlpha" operator="out"/>
<feColorMatrix type="matrix" values="0 0 0 0 0 0 0 0 0 0 0 0 0 0 0 0 0 0 0.7 0"/>
<feBlend mode="normal" in2="effect1_backgroundBlur_137_607" result="effect2_dropShadow_137_607"/>
<feBlend mode="normal" in="SourceGraphic" in2="effect2_dropShadow_137_607" result="shape"/>
</filter>
<filter id="filter1_bd_137_607" x="-131.972" y="213.004" width="402.096" height="398.997" filterUnits="userSpaceOnUse" color-interpolation-filters="sRGB">
<feFlood flood-opacity="0" result="BackgroundImageFix"/>
<feGaussianBlur in="BackgroundImageFix" stdDeviation="30.7995"/>
<feComposite in2="SourceAlpha" operator="in" result="effect1_backgroundBlur_137_607"/>
<feColorMatrix in="SourceAlpha" type="matrix" values="0 0 0 0 0 0 0 0 0 0 0 0 0 0 0 0 0 0 127 0" result="hardAlpha"/>
<feOffset dy="35.9328"/>
<feGaussianBlur stdDeviation="17.9664"/>
<feComposite in2="hardAlpha" operator="out"/>
<feColorMatrix type="matrix" values="0 0 0 0 0 0 0 0 0 0 0 0 0 0 0 0 0 0 0.7 0"/>
<feBlend mode="normal" in2="effect1_backgroundBlur_137_607" result="effect2_dropShadow_137_607"/>
<feBlend mode="normal" in="SourceGraphic" in2="effect2_dropShadow_137_607" result="shape"/>
</filter>
<linearGradient id="paint0_linear_137_607" x1="1387" y1="204.5" x2="1199.5" y2="344" gradientUnits="userSpaceOnUse">
<stop/>
<stop offset="1" stop-opacity="0"/>
</linearGradient>
<linearGradient id="paint1_linear_137_607" x1="-51.8155" y1="420.395" x2="191.94" y2="384.207" gradientUnits="userSpaceOnUse">
<stop offset="0.0186736"/>
<stop offset="1" stop-opacity="0"/>
</linearGradient>
</defs>
</svg>
