<svg width="1672" height="591" viewBox="0 0 1672 591" fill="none" xmlns="http://www.w3.org/2000/svg">
<g filter="url(#filter0_bd_131_607)">
<circle cx="380" cy="172" r="36" fill="url(#paint0_linear_131_607)"/>
<circle cx="380" cy="172" r="35.5" stroke="white"/>
</g>
<g filter="url(#filter1_bd_131_607)">
<path fill-rule="evenodd" clip-rule="evenodd" d="M1435.08 211.315L1502.53 241.53L1552.11 186.717L1515.3 122.625L1442.97 137.828L1435.08 211.315ZM1380.86 81.6439L1362.45 253.027L1519.76 323.494L1635.39 195.661L1549.54 46.1893L1380.86 81.6439Z" fill="url(#paint1_linear_131_607)"/>
<path d="M1434.58 211.262L1434.54 211.623L1434.87 211.771L1502.33 241.986L1502.66 242.135L1502.9 241.865L1552.48 187.052L1552.72 186.783L1552.54 186.468L1515.73 122.376L1515.55 122.061L1515.2 122.136L1442.87 137.339L1442.51 137.413L1442.47 137.775L1434.58 211.262ZM1362.99 252.72L1381.32 82.0585L1549.29 46.7533L1634.77 195.595L1519.63 322.889L1362.99 252.72Z" stroke="white"/>
</g>
<g filter="url(#filter2_bd_131_607)">
<rect x="1185" y="466.493" width="63.625" height="63.625" transform="rotate(-57.2191 1185 466.493)" fill="url(#paint2_linear_131_607)"/>
<rect x="1185.69" y="466.343" width="62.625" height="62.625" transform="rotate(-57.2191 1185.69 466.343)" stroke="white"/>
</g>
<g filter="url(#filter3_bd_131_607)">
<mask id="path-7-inside-1_131_607" fill="white">
<path d="M330.754 445.844C320.366 464.19 306.18 480.108 289.147 492.532C272.113 504.956 252.623 513.6 231.98 517.886C211.337 522.173 190.017 522.003 169.444 517.388C148.872 512.773 129.523 503.819 112.689 491.125C95.8554 478.431 81.9258 462.29 71.8314 443.78C61.7371 425.27 55.7108 404.819 54.1553 383.793C52.5999 362.767 55.5512 341.652 62.8119 321.858C70.0726 302.064 81.4755 284.049 96.258 269.016L152.203 324.029C145.251 331.099 139.889 339.571 136.474 348.879C133.06 358.187 131.672 368.117 132.403 378.004C133.135 387.892 135.969 397.51 140.716 406.214C145.463 414.919 152.013 422.509 159.93 428.479C167.846 434.448 176.945 438.659 186.619 440.829C196.294 442.999 206.32 443.079 216.027 441.063C225.735 439.048 234.9 434.982 242.911 429.14C250.921 423.297 257.592 415.812 262.477 407.184L330.754 445.844Z"/>
</mask>
<path d="M330.754 445.844C320.366 464.19 306.18 480.108 289.147 492.532C272.113 504.956 252.623 513.6 231.98 517.886C211.337 522.173 190.017 522.003 169.444 517.388C148.872 512.773 129.523 503.819 112.689 491.125C95.8554 478.431 81.9258 462.29 71.8314 443.78C61.7371 425.27 55.7108 404.819 54.1553 383.793C52.5999 362.767 55.5512 341.652 62.8119 321.858C70.0726 302.064 81.4755 284.049 96.258 269.016L152.203 324.029C145.251 331.099 139.889 339.571 136.474 348.879C133.06 358.187 131.672 368.117 132.403 378.004C133.135 387.892 135.969 397.51 140.716 406.214C145.463 414.919 152.013 422.509 159.93 428.479C167.846 434.448 176.945 438.659 186.619 440.829C196.294 442.999 206.32 443.079 216.027 441.063C225.735 439.048 234.9 434.982 242.911 429.14C250.921 423.297 257.592 415.812 262.477 407.184L330.754 445.844Z" fill="url(#paint3_linear_131_607)"/>
<path d="M330.754 445.844C320.366 464.19 306.18 480.108 289.147 492.532C272.113 504.956 252.623 513.6 231.98 517.886C211.337 522.173 190.017 522.003 169.444 517.388C148.872 512.773 129.523 503.819 112.689 491.125C95.8554 478.431 81.9258 462.29 71.8314 443.78C61.7371 425.27 55.7108 404.819 54.1553 383.793C52.5999 362.767 55.5512 341.652 62.8119 321.858C70.0726 302.064 81.4755 284.049 96.258 269.016L152.203 324.029C145.251 331.099 139.889 339.571 136.474 348.879C133.06 358.187 131.672 368.117 132.403 378.004C133.135 387.892 135.969 397.51 140.716 406.214C145.463 414.919 152.013 422.509 159.93 428.479C167.846 434.448 176.945 438.659 186.619 440.829C196.294 442.999 206.32 443.079 216.027 441.063C225.735 439.048 234.9 434.982 242.911 429.14C250.921 423.297 257.592 415.812 262.477 407.184L330.754 445.844Z" stroke="white" stroke-width="2" mask="url(#path-7-inside-1_131_607)"/>
</g>
<defs>
<filter id="filter0_bd_131_607" x="284" y="76.0002" width="192" height="202" filterUnits="userSpaceOnUse" color-interpolation-filters="sRGB">
<feFlood flood-opacity="0" result="BackgroundImageFix"/>
<feGaussianBlur in="BackgroundImageFix" stdDeviation="30"/>
<feComposite in2="SourceAlpha" operator="in" result="effect1_backgroundBlur_131_607"/>
<feColorMatrix in="SourceAlpha" type="matrix" values="0 0 0 0 0 0 0 0 0 0 0 0 0 0 0 0 0 0 127 0" result="hardAlpha"/>
<feOffset dy="35"/>
<feGaussianBlur stdDeviation="17.5"/>
<feComposite in2="hardAlpha" operator="out"/>
<feColorMatrix type="matrix" values="0 0 0 0 0.32549 0 0 0 0 0.552941 0 0 0 0 1 0 0 0 0.3 0"/>
<feBlend mode="normal" in2="effect1_backgroundBlur_131_607" result="effect2_dropShadow_131_607"/>
<feBlend mode="normal" in="SourceGraphic" in2="effect2_dropShadow_131_607" result="shape"/>
</filter>
<filter id="filter1_bd_131_607" x="1300.85" y="-15.4099" width="396.134" height="410.769" filterUnits="userSpaceOnUse" color-interpolation-filters="sRGB">
<feFlood flood-opacity="0" result="BackgroundImageFix"/>
<feGaussianBlur in="BackgroundImageFix" stdDeviation="30.7995"/>
<feComposite in2="SourceAlpha" operator="in" result="effect1_backgroundBlur_131_607"/>
<feColorMatrix in="SourceAlpha" type="matrix" values="0 0 0 0 0 0 0 0 0 0 0 0 0 0 0 0 0 0 127 0" result="hardAlpha"/>
<feOffset dy="35.9328"/>
<feGaussianBlur stdDeviation="17.9664"/>
<feComposite in2="hardAlpha" operator="out"/>
<feColorMatrix type="matrix" values="0 0 0 0 0.32549 0 0 0 0 0.552941 0 0 0 0 1 0 0 0 0.2 0"/>
<feBlend mode="normal" in2="effect1_backgroundBlur_131_607" result="effect2_dropShadow_131_607"/>
<feBlend mode="normal" in="SourceGraphic" in2="effect2_dropShadow_131_607" result="shape"/>
</filter>
<filter id="filter2_bd_131_607" x="1125" y="353" width="207.94" height="217.941" filterUnits="userSpaceOnUse" color-interpolation-filters="sRGB">
<feFlood flood-opacity="0" result="BackgroundImageFix"/>
<feGaussianBlur in="BackgroundImageFix" stdDeviation="30"/>
<feComposite in2="SourceAlpha" operator="in" result="effect1_backgroundBlur_131_607"/>
<feColorMatrix in="SourceAlpha" type="matrix" values="0 0 0 0 0 0 0 0 0 0 0 0 0 0 0 0 0 0 127 0" result="hardAlpha"/>
<feOffset dy="35"/>
<feGaussianBlur stdDeviation="17.5"/>
<feComposite in2="hardAlpha" operator="out"/>
<feColorMatrix type="matrix" values="0 0 0 0 0.32549 0 0 0 0 0.552941 0 0 0 0 1 0 0 0 0.2 0"/>
<feBlend mode="normal" in2="effect1_backgroundBlur_131_607" result="effect2_dropShadow_131_607"/>
<feBlend mode="normal" in="SourceGraphic" in2="effect2_dropShadow_131_607" result="shape"/>
</filter>
<filter id="filter3_bd_131_607" x="-6.24854" y="209.016" width="397.002" height="381.964" filterUnits="userSpaceOnUse" color-interpolation-filters="sRGB">
<feFlood flood-opacity="0" result="BackgroundImageFix"/>
<feGaussianBlur in="BackgroundImageFix" stdDeviation="30"/>
<feComposite in2="SourceAlpha" operator="in" result="effect1_backgroundBlur_131_607"/>
<feColorMatrix in="SourceAlpha" type="matrix" values="0 0 0 0 0 0 0 0 0 0 0 0 0 0 0 0 0 0 127 0" result="hardAlpha"/>
<feOffset dy="35"/>
<feGaussianBlur stdDeviation="17.5"/>
<feComposite in2="hardAlpha" operator="out"/>
<feColorMatrix type="matrix" values="0 0 0 0 0.32549 0 0 0 0 0.552941 0 0 0 0 1 0 0 0 0.3 0"/>
<feBlend mode="normal" in2="effect1_backgroundBlur_131_607" result="effect2_dropShadow_131_607"/>
<feBlend mode="normal" in="SourceGraphic" in2="effect2_dropShadow_131_607" result="shape"/>
</filter>
<linearGradient id="paint0_linear_131_607" x1="367" y1="200.5" x2="411" y2="140" gradientUnits="userSpaceOnUse">
<stop stop-color="white"/>
<stop offset="1" stop-color="#E8F0FF"/>
</linearGradient>
<linearGradient id="paint1_linear_131_607" x1="1486.93" y1="78.122" x2="1451.43" y2="252.122" gradientUnits="userSpaceOnUse">
<stop stop-color="white"/>
<stop offset="1" stop-color="#E8F0FF"/>
</linearGradient>
<linearGradient id="paint2_linear_131_607" x1="1236.98" y1="485.352" x2="1199.99" y2="509.175" gradientUnits="userSpaceOnUse">
<stop stop-color="white"/>
<stop offset="1" stop-color="#E8F0FF"/>
</linearGradient>
<linearGradient id="paint3_linear_131_607" x1="150.277" y1="333.127" x2="232.941" y2="471.267" gradientUnits="userSpaceOnUse">
<stop offset="0.0401148" stop-color="white"/>
<stop offset="1" stop-color="#E8F0FF"/>
</linearGradient>
</defs>
</svg>
