<svg width="138" height="26" viewBox="0 0 138 26" fill="none" xmlns="http://www.w3.org/2000/svg">
<path d="M56.8437 3.57937C56.8437 5.5562 55.2412 7.15874 53.2644 7.15874C51.2875 7.15874 49.685 5.5562 49.685 3.57937C49.685 1.60254 51.2875 0 53.2644 0C55.2412 0 56.8437 1.60254 56.8437 3.57937Z" fill="#538DFF"/>
<path fill-rule="evenodd" clip-rule="evenodd" d="M53.2644 5.727C54.4505 5.727 55.412 4.76547 55.412 3.57937C55.412 2.39327 54.4505 1.43175 53.2644 1.43175C52.0783 1.43175 51.1167 2.39327 51.1167 3.57937C51.1167 4.76547 52.0783 5.727 53.2644 5.727ZM53.2644 7.15874C55.2412 7.15874 56.8437 5.5562 56.8437 3.57937C56.8437 1.60254 55.2412 0 53.2644 0C51.2875 0 49.685 1.60254 49.685 3.57937C49.685 5.5562 51.2875 7.15874 53.2644 7.15874Z" fill="#222222"/>
<path d="M14.5919 4.76953H17.6934V25.4626H15.4563L3.10148 9.80296V25.4626H6.10352e-05V4.76953H2.5422L14.5919 20.0224V4.76953Z" fill="#222222"/>
<path d="M33.2507 25.7174C32.7414 25.394 32.3271 24.9412 32.0502 24.4052C31.7733 23.8692 31.6437 23.2693 31.6746 22.6668C31.1245 23.586 30.3517 24.352 29.4276 24.894C28.5035 25.4361 27.4578 25.7367 26.3869 25.7682C25.7702 25.8146 25.1506 25.7312 24.5681 25.5233C23.9857 25.3154 23.4533 24.9877 23.0053 24.5613C22.5573 24.1349 22.2038 23.6192 21.9674 23.0477C21.7311 22.4762 21.6172 21.8614 21.6331 21.2432C21.6331 16.6419 27.4546 15.3454 31.2424 15.2437V14.6082C31.2424 12.066 29.8443 11.5068 28.0902 11.5068C26.2599 11.5691 24.5264 12.3445 23.2601 13.6676L22.5737 10.9983C24.2038 9.82139 26.1561 9.1736 28.1665 9.14258C31.0136 9.14258 34.2676 10.1086 34.2676 14.2269V21.0398C34.1525 22.3388 34.524 23.6343 35.3099 24.6751L33.2507 25.7174ZM31.2424 17.252C26.6666 17.6333 24.7092 18.879 24.7092 21.0144C24.6842 21.3049 24.7205 21.5974 24.8157 21.873C24.9108 22.1485 25.0627 22.4011 25.2615 22.6143C25.4604 22.8275 25.7018 22.9967 25.9701 23.1108C26.2384 23.2249 26.5276 23.2815 26.8191 23.2769C27.9889 23.2258 29.0959 22.7331 29.9168 21.8981C30.7377 21.0631 31.2114 19.9478 31.2424 18.7773V17.252Z" fill="#222222"/>
<path d="M43.4202 20.9632C43.4202 22.9969 44.1829 23.6324 45.5302 23.6324C46.5649 23.6418 47.5862 23.3974 48.5045 22.9206L49.1401 24.7001C47.8889 25.5523 46.4084 26.0044 44.8946 25.9966C41.2594 25.9966 40.3696 23.4545 40.3696 20.709V11.6081H37.9547V9.75235H40.3696V6.39671L43.3948 5.40527V9.65065H48.4791L47.9198 11.5064H43.4202V20.9632Z" fill="#222222"/>
<path d="M51.8087 9.65039V25.4625H54.8847V9.65039H51.8087Z" fill="#222222"/>
<path d="M57.4019 9.65039H60.7321L64.9013 21.3697L68.9941 9.65039H72.1209L65.8164 25.4625H63.7573L57.4019 9.65039Z" fill="#222222"/>
<path d="M85.8734 22.2606L87.0428 24.2688C85.5873 25.3913 83.7964 25.9912 81.9585 25.9721C80.8398 26.0473 79.7182 25.8749 78.6738 25.4673C77.6293 25.0596 76.6875 24.4266 75.9156 23.6134C75.1436 22.8002 74.5605 21.8267 74.2077 20.7625C73.8549 19.6982 73.7412 18.5692 73.8745 17.4559C73.7789 16.3982 73.9053 15.3322 74.2455 14.3262C74.5857 13.3202 75.1323 12.3963 75.8502 11.6137C76.5682 10.8312 77.4417 10.2072 78.4147 9.78177C79.3878 9.35632 80.4389 9.13878 81.5009 9.1431C82.3086 9.07313 83.122 9.17045 83.8904 9.42894C84.6588 9.68743 85.3656 10.1015 85.9667 10.6454C86.5679 11.1893 87.0505 11.8514 87.3844 12.5901C87.7182 13.3289 87.8961 14.1286 87.9071 14.9392C87.9181 16.1264 87.6573 17.3003 87.1445 18.3711H76.9759C77.2556 22.1335 79.3655 23.4554 82.0602 23.4554C83.4294 23.4964 84.7725 23.0756 85.8734 22.2606ZM84.7549 16.134C84.7801 15.8125 84.7801 15.4895 84.7549 15.168C84.8223 14.6885 84.7835 14.2001 84.6414 13.7373C84.4992 13.2744 84.2571 12.8485 83.9321 12.4896C83.6072 12.1307 83.2073 11.8475 82.7608 11.6602C82.3144 11.4729 81.8322 11.386 81.3484 11.4056C78.6283 11.4056 77.2555 13.2359 76.9505 16.134H84.7549Z" fill="#222222"/>
<path d="M91.7208 4.76953H95.0001V23.1747H103.72V25.4626H91.7208V4.76953Z" fill="#222222"/>
<path d="M116.227 25.7174C115.718 25.394 115.303 24.9412 115.027 24.4052C114.75 23.8692 114.62 23.2693 114.651 22.6668C114.101 23.586 113.328 24.352 112.404 24.894C111.48 25.4361 110.434 25.7367 109.363 25.7682C108.747 25.8146 108.127 25.7312 107.544 25.5233C106.962 25.3154 106.43 24.9877 105.982 24.5613C105.534 24.1349 105.18 23.6192 104.944 23.0477C104.707 22.4762 104.593 21.8614 104.609 21.2432C104.609 16.6419 110.431 15.3454 114.219 15.2437V14.6082C114.219 12.066 112.821 11.5068 111.066 11.5068C109.236 11.5691 107.503 12.3445 106.236 13.6676L105.55 10.9983C107.18 9.82139 109.132 9.1736 111.143 9.14258C114.015 9.14258 117.244 10.1086 117.244 14.2269V21.0398C117.136 22.3421 117.517 23.6379 118.312 24.6751L116.227 25.7174ZM114.219 17.252C109.643 17.6333 107.685 18.879 107.685 21.0144C107.66 21.3049 107.697 21.5974 107.792 21.873C107.887 22.1485 108.039 22.4011 108.238 22.6143C108.437 22.8275 108.678 22.9967 108.946 23.1108C109.215 23.2249 109.504 23.2815 109.795 23.2769C110.965 23.2258 112.072 22.7331 112.893 21.8981C113.714 21.0631 114.188 19.9478 114.219 18.7773V17.252Z" fill="#222222"/>
<path d="M136.997 17.1501C137.085 18.3378 136.915 19.5306 136.499 20.6463C136.082 21.7619 135.428 22.7738 134.582 23.6124C133.736 24.4509 132.719 25.096 131.599 25.5033C130.48 25.9105 129.286 26.0702 128.099 25.9713C126.193 25.9423 124.308 25.5721 122.532 24.8782V3.34629L125.633 2.86328V11.0998C126.23 10.4612 126.956 9.95646 127.762 9.61903C128.568 9.2816 129.437 9.11915 130.311 9.14238C134.658 9.14238 136.997 12.4217 136.997 17.1501ZM133.819 17.1501C133.819 14.2012 132.828 11.7099 129.523 11.7099C128.729 11.7193 127.951 11.9412 127.272 12.3525C126.592 12.7638 126.035 13.3494 125.659 14.0487V23.3529C126.48 23.6209 127.337 23.7582 128.201 23.7597C132.116 23.6834 133.819 20.76 133.819 17.0738V17.1501Z" fill="#222222"/>
</svg>
